<svg id="Glyph" height="20" fill="#ffffff" viewBox="0 0 512 512" width="20" xmlns="http://www.w3.org/2000/svg"><path d="m400 136.022v-16.522a24.028 24.028 0 0 0 -24-24h-168v32.5h168a39.788 39.788 0 0 1 24 8.022z"/><path d="m384 256a112.453 112.453 0 0 1 16 1.148v-89.148a24.028 24.028 0 0 0 -24-24h-176a8 8 0 0 1 -8-8v-64a24.027 24.027 0 0 0 -24-24h-112a24.027 24.027 0 0 0 -24 24v320a24.027 24.027 0 0 0 24 24h226.821a111.976 111.976 0 0 1 101.179-160z"/><path d="m384 272a96 96 0 1 0 96 96 96.108 96.108 0 0 0 -96-96zm56 104h-48v48a8 8 0 0 1 -16 0v-48h-48a8 8 0 0 1 0-16h48v-48a8 8 0 0 1 16 0v48h48a8 8 0 0 1 0 16z"/></svg>