<svg xmlns="http://www.w3.org/2000/svg" width="15" height="17" viewBox="0 0 15 17"><g><g><path fill="#fdfbf6" d="M7.862 5.872v-3.38l6.775 1.44L9.58 6.87a2.63 2.63 0 0 0-1.718-.997zm-2.442.997L2.51 5.18 7.137-.003v5.875a2.632 2.632 0 0 0-1.717.997zM4.86 8.5c0 .353.07.69.195.997l-2.908 1.69L0 4.563 5.056 7.5a2.653 2.653 0 0 0-.195.998zm2.276 2.626v3.38l-6.775-1.44 5.058-2.937c.412.531 1.02.9 1.717.997zm2.443-.997l2.91 1.69L7.862 17v-5.875a2.635 2.635 0 0 0 1.718-.997zm3.272-4.317L15 12.434 9.943 9.496a2.655 2.655 0 0 0 0-1.996z"/></g></g></svg>