<svg width="0" height="0" class="hidden">
  <symbol xmlns="http://www.w3.org/2000/svg" viewBox="0 0 7 12" id="sort-icon">
    <path fill="#ffc000" d="M3.473.571l3.54 4.437h-7.08zm0 10.703l3.54-4.437h-7.08z"></path>
  </symbol>
  <symbol xmlns="http://www.w3.org/2000/svg" viewBox="0 0 512 512" id="agreement">
    <path d="M433.6 119.384a10.581 10.581 0 0 1-5.333 2.453c-42.88 6.528-73.792-3.648-98.581-11.84-15.253-5.013-28.395-9.365-41.685-9.365-22.421 0-39.787 11.413-56.576 22.443-3.904 2.56-7.701 5.056-11.456 7.339l-55.595 55.595a24.919 24.919 0 0 0-4.672 28.821c4.245 8.512 12.8 13.803 22.315 13.803h8.533c5.803 0 11.243-1.92 15.723-5.547 4.075-3.328 8.768-7.232 13.781-11.435 27.328-22.848 49.408-40.789 64.192-46.336a10.437 10.437 0 0 1 3.755-.683c2.517 0 5.013.896 6.976 2.603l154.176 133.611L512 275.928V70.488l-78.4 48.896zM96.491 292.632a20.818 20.818 0 0 0-17.344 9.28l-11.648 17.472A20.809 20.809 0 0 0 64 330.947v4.843c0 11.52 9.323 20.843 20.843 20.843a20.818 20.818 0 0 0 17.344-9.28l11.648-17.472a20.809 20.809 0 0 0 3.499-11.563v-4.843c-.001-11.52-9.323-20.843-20.843-20.843zm42.666 21.333h-.725a20.864 20.864 0 0 0-16.683 8.341l-21.568 28.779A20.79 20.79 0 0 0 96 363.587v4.203c0 11.52 9.323 20.843 20.843 20.843h.725a20.864 20.864 0 0 0 16.683-8.341l21.568-28.779A20.788 20.788 0 0 0 160 339.012v-4.203c0-11.521-9.323-20.844-20.843-20.844zm42.667 21.334h-.725a20.864 20.864 0 0 0-16.683 8.341l-21.568 28.779a20.788 20.788 0 0 0-4.181 12.501v4.203c0 11.52 9.323 20.843 20.843 20.843h.725a20.864 20.864 0 0 0 16.683-8.341l21.568-28.779a20.788 20.788 0 0 0 4.181-12.501v-4.203c0-11.521-9.323-20.843-20.843-20.843zm42.667 21.333h-.725a20.864 20.864 0 0 0-16.683 8.341l-21.568 28.779a20.788 20.788 0 0 0-4.181 12.501v4.203c0 11.52 9.323 20.843 20.843 20.843h.725a20.864 20.864 0 0 0 16.683-8.341l21.568-28.779c2.709-3.605 4.16-8 4.16-12.501v-4.203h.021c-.001-11.52-9.323-20.843-20.843-20.843zm54.677 63.659l-19.307-16.448c-.64 1.003-.939 2.197-1.643 3.157l-13.717 18.283 14.357 13.312c4.565 4.544 11.307 4.288 15.339.256 5.312-5.312 7.424-15.488 4.971-18.56z"></path>
    <path d="M441.579 323.928l-155.35-136.021c-13.675 7.637-35.776 26.112-52.48 40.085-5.077 4.267-9.835 8.235-13.973 11.605-8.341 6.805-18.432 10.368-29.205 10.368h-8.533c-17.664 0-33.515-9.813-41.408-25.6-8.96-17.835-5.483-39.296 8.661-53.44l59.563-58.731c3.051-1.856 6.144-3.883 9.28-5.931-33.451-6.827-71.467-7.296-113.941-.619a74.687 74.687 0 0 1-59.755-16.32L0 70.061v205.845l55.467 23.061 5.931-8.896c7.808-11.733 20.928-18.773 35.093-18.773 15.893 0 29.589 8.939 36.779 21.952 1.707-.235 3.392-.619 5.141-.619 16.405 0 30.251 8.939 37.483 21.952 1.749-.235 3.435-.619 5.184-.619 16.405 0 30.251 8.939 37.483 21.952 1.728-.213 3.413-.619 5.184-.619h.747c23.253 0 42.176 18.923 42.176 42.176v4.16l26.773 22.763c.021.043.064.064.107.107l10.197 8.661c5.931 4.736 13.696 7.467 21.611 7.467 8.811 0 15.979-7.168 15.979-15.979 0-4.757-2.112-9.216-5.76-12.267l-97.088-80.896c-4.523-3.776-5.141-10.496-1.365-15.019 3.776-4.501 10.496-5.141 15.04-1.344l119.936 99.947a18.407 18.407 0 0 0 11.733 4.224h3.136c10.133 0 18.347-8.235 18.347-18.347 0-5.333-2.24-10.325-6.208-13.824l-117.952-98.283a10.663 10.663 0 0 1-1.344-15.04c3.797-4.544 10.517-5.099 15.019-1.365l117.568 97.963c.192.149.384.32.555.469l1.749 1.451a18.492 18.492 0 0 0 11.883 4.309h2.859c10.219 0 18.56-8.341 18.56-18.56-.003-5.481-2.328-10.579-6.424-14.142z"></path>
  </symbol>
  <symbol xmlns="http://www.w3.org/2000/svg" viewBox="0 0 53.251 53.251" id="capitol-building">
    <path d="M12.61 21.022h28.03a1.169 1.169 0 0 0 0-2.335h-.06c-.528-6.41-5.371-11.588-11.619-12.637V4.38h-2.044V.292c0-.159-.131-.292-.292-.292s-.292.133-.292.292v4.087H24.29v1.67c-6.248 1.049-11.09 6.227-11.621 12.637h-.059a1.169 1.169 0 0 0 0 2.336zm33.87 29.31h-1.46V36.9h1.46a1.461 1.461 0 0 0 0-2.92H6.771c-.806 0-1.46.657-1.46 1.46 0 .81.654 1.46 1.46 1.46h1.46v13.432h-1.46c-.806 0-1.46.656-1.46 1.459 0 .811.654 1.46 1.46 1.46H46.48c.808 0 1.46-.649 1.46-1.46 0-.801-.652-1.459-1.46-1.459zm-5.548 0H38.48V36.9h2.452v13.432zM25.399 36.9h2.452v13.432h-2.452V36.9zm-4.087 13.432h-2.453V36.9h2.453v13.432zM31.94 36.9h2.452v13.432H31.94V36.9zm-19.622 0h2.452v13.432h-2.452V36.9zm-1.459-10.914h1.471c0 .022-.012.042-.012.058v6.302h2.92v-6.302c0-.021-.011-.042-.011-.058h1.387c0 .022-.011.042-.011.058v6.302h2.919v-6.302c0-.021-.011-.042-.011-.058h1.387c0 .022-.011.042-.011.058v6.302h2.92v-6.302c0-.021-.012-.042-.012-.058h1.387c0 .022-.012.042-.012.058v6.302h2.92v-6.302c0-.021-.012-.042-.012-.058h1.387c0 .022-.012.042-.012.058v6.302h2.92v-6.302c0-.021-.011-.042-.011-.058h1.387c0 .022-.012.042-.012.058v6.302h2.92v-6.302c0-.021-.012-.042-.012-.058h1.387c0 .022-.011.042-.011.058v6.302h2.92v-6.302c0-.021-.012-.042-.012-.058H42.4c.808 0 1.46-.651 1.46-1.46 0-.807-.652-1.46-1.46-1.46H10.868a1.46 1.46 0 0 0-1.46 1.46c0 .805.644 1.46 1.451 1.46z"></path>
  </symbol>
  <symbol xmlns="http://www.w3.org/2000/svg" viewBox="0 0 512 512" id="certificate">
    <path d="M448.004 93c5.523 0 10-4.477 10-10V30c0-16.542-13.458-30-30-30h-398c-16.542 0-30 13.458-30 30v452c0 16.542 13.458 30 30 30h398c16.542 0 30-13.458 30-30v-28c0-5.523-4.477-10-10-10s-10 4.477-10 10v28c0 5.514-4.486 10-10 10h-398c-5.514 0-10-4.486-10-10V30c0-5.514 4.486-10 10-10h398c5.514 0 10 4.486 10 10v53c0 5.523 4.477 10 10 10z"></path>
    <path d="M400.01 48H57.998c-5.523 0-10 4.477-10 10v209c0 5.523 4.477 10 10 10s10-4.477 10-10V68H390.01v16c0 5.523 4.478 10 10 10 5.523 0 10-4.477 10-10V58c0-5.523-4.477-10-10-10zM65.064 296.93a10.058 10.058 0 0 0-7.07-2.93c-2.63 0-5.21 1.07-7.07 2.93s-2.93 4.44-2.93 7.07 1.07 5.21 2.93 7.07c1.86 1.86 4.44 2.93 7.07 2.93 2.64 0 5.21-1.07 7.07-2.93 1.87-1.86 2.93-4.44 2.93-7.07s-1.06-5.21-2.93-7.07zM400.01 422c-5.523 0-10 4.477-10 10v12H67.998V342.5c0-5.523-4.477-10-10-10s-10 4.477-10 10V454c0 5.523 4.477 10 10 10H400.01c5.523 0 10-4.477 10-10v-22c0-5.523-4.477-10-10-10z"></path>
    <path d="M309.908 353.336c-3.905-3.906-10.236-3.906-14.142-.001L276.002 373.1l-12.285-12.286c-7.757-7.756-20.376-7.756-28.133 0l-7.994 7.994c-3.905 3.905-3.905 10.237 0 14.143 3.905 3.905 10.237 3.905 14.143 0l7.918-7.918 12.285 12.286c3.878 3.878 8.972 5.817 14.066 5.817s10.188-1.939 14.066-5.817l19.84-19.84c3.905-3.905 3.905-10.237 0-14.143z"></path>
    <path d="M507.4 209.782a29.155 29.155 0 0 0 3.609-23.231 29.152 29.152 0 0 0-14.741-18.313 9.115 9.115 0 0 1-4.907-8.499 29.157 29.157 0 0 0-8.489-21.923 29.133 29.133 0 0 0-21.923-8.489 9.087 9.087 0 0 1-8.499-4.907 29.155 29.155 0 0 0-18.313-14.741 29.146 29.146 0 0 0-23.23 3.609 9.113 9.113 0 0 1-9.813 0 29.148 29.148 0 0 0-23.23-3.609 29.155 29.155 0 0 0-18.313 14.741 9.132 9.132 0 0 1-8.499 4.907 29.142 29.142 0 0 0-21.922 8.489 29.154 29.154 0 0 0-8.49 21.922 9.117 9.117 0 0 1-4.907 8.5 29.153 29.153 0 0 0-14.741 18.313 29.05 29.05 0 0 0-.711 11.449h-174.5c-5.523 0-10 4.477-10 10s4.477 10 10 10H305.39a9.006 9.006 0 0 1-.79 1.596 29.155 29.155 0 0 0-3.609 23.231c.29 1.083.647 2.141 1.057 3.173h-176.27c-5.523 0-10 4.477-10 10s4.477 10 10 10h194.265a9.035 9.035 0 0 1 .594 3.639 29.154 29.154 0 0 0 8.49 21.923 29.127 29.127 0 0 0 21.922 8.489c3.533-.173 6.873 1.761 8.499 4.907a29.023 29.023 0 0 0 4.451 6.344v93.393a10 10 0 0 0 17.053 7.089l24.947-24.817 24.947 24.817a9.997 9.997 0 0 0 10.892 2.144 10 10 0 0 0 6.161-9.234v-93.393a28.999 28.999 0 0 0 4.451-6.344 9.126 9.126 0 0 1 8.499-4.907 29.112 29.112 0 0 0 21.922-8.489 29.154 29.154 0 0 0 8.49-21.923 9.116 9.116 0 0 1 4.907-8.499 29.153 29.153 0 0 0 14.741-18.313 29.157 29.157 0 0 0-3.609-23.232 9.11 9.11 0 0 1 0-9.812zm-79.401 170.86l-14.948-14.87c-3.901-3.881-10.204-3.881-14.105 0l-14.947 14.87V320.65a29.166 29.166 0 0 0 17.094-4.56 9.113 9.113 0 0 1 9.813 0 29.147 29.147 0 0 0 15.72 4.597c.458 0 .915-.023 1.373-.045v60zm63.691-142.991a8.991 8.991 0 0 1-4.607 5.723c-10.064 5.203-16.228 15.877-15.701 27.195a8.991 8.991 0 0 1-2.653 6.852 8.998 8.998 0 0 1-6.851 2.653c-11.324-.524-21.992 5.636-27.195 15.701a8.987 8.987 0 0 1-5.724 4.607c-2.5.669-5.08.27-7.259-1.128a29.075 29.075 0 0 0-15.702-4.586 29.082 29.082 0 0 0-15.701 4.586 8.998 8.998 0 0 1-7.26 1.128 8.993 8.993 0 0 1-5.724-4.607c-5.203-10.064-15.869-16.23-27.195-15.701a9.003 9.003 0 0 1-6.851-2.653 8.988 8.988 0 0 1-2.653-6.853c.371-7.988-2.602-15.646-7.915-21.295a9.882 9.882 0 0 0-.483-.499 28.922 28.922 0 0 0-7.303-5.4c-2.3-1.189-3.936-3.221-4.606-5.723s-.27-5.081 1.128-7.26c6.115-9.538 6.115-21.864 0-31.402a8.996 8.996 0 0 1-1.128-7.261 8.991 8.991 0 0 1 4.607-5.723c10.064-5.203 16.227-15.877 15.701-27.195a8.991 8.991 0 0 1 2.653-6.852 8.998 8.998 0 0 1 6.851-2.653c11.325.525 21.993-5.636 27.195-15.701a8.987 8.987 0 0 1 5.724-4.607 8.991 8.991 0 0 1 7.259 1.128c9.539 6.116 21.866 6.116 31.402 0a8.99 8.99 0 0 1 7.26-1.128 8.993 8.993 0 0 1 5.724 4.607c5.203 10.064 15.876 16.229 27.195 15.701a8.993 8.993 0 0 1 6.851 2.653 8.987 8.987 0 0 1 2.653 6.852c-.526 11.317 5.636 21.992 15.702 27.195a8.987 8.987 0 0 1 4.606 5.723 8.99 8.99 0 0 1-1.128 7.26c-6.115 9.538-6.115 21.864 0 31.402a8.988 8.988 0 0 1 1.128 7.261z"></path>
    <path d="M453.556 187.486c-3.905-3.905-10.237-3.905-14.142 0l-33.191 33.192-13.213-13.213c-3.905-3.905-10.237-3.905-14.143 0-3.905 3.905-3.905 10.237 0 14.143l20.284 20.284c1.953 1.953 4.512 2.929 7.071 2.929s5.119-.976 7.071-2.929l40.263-40.263c3.905-3.905 3.905-10.237 0-14.143zM122.074 120.93a10.076 10.076 0 0 0-7.07-2.93c-2.63 0-5.21 1.07-7.07 2.93-1.86 1.86-2.93 4.44-2.93 7.07s1.07 5.21 2.93 7.07c1.86 1.86 4.44 2.93 7.07 2.93s5.21-1.07 7.07-2.93c1.86-1.86 2.93-4.44 2.93-7.07s-1.07-5.21-2.93-7.07zm78.923-2.93H152.33c-5.523 0-10 4.477-10 10s4.477 10 10 10h48.667c5.523 0 10-4.477 10-10s-4.477-10-10-10zm101.841 176H188.516c-5.523 0-10 4.477-10 10s4.477 10 10 10h114.321c5.523 0 10-4.477 10-10s-4.476-10-9.999-10z"></path>
  </symbol>
  <symbol xmlns="http://www.w3.org/2000/svg" viewBox="0 0 512.008 512.008" id="transfer">
    <path d="M480.004 352.004H54.628l68.688-68.688-22.624-22.624-96 96c-6.256 6.256-6.256 16.368 0 22.624l96 96 22.624-22.624-68.688-68.688h425.376v-32zm27.312-219.312l-96-96-22.624 22.624 68.688 68.688H32.004v32H457.38l-68.688 68.688 22.624 22.624 96-96c6.256-6.256 6.256-16.368 0-22.624z"></path>
  </symbol>
  <symbol xmlns="http://www.w3.org/2000/svg" viewBox="0 0 350 350" id="man-user">
    <path d="M175 171.173c38.914 0 70.463-38.318 70.463-85.586C245.463 38.318 235.105 0 175 0s-70.465 38.318-70.465 85.587c0 47.268 31.549 85.586 70.465 85.586zM41.909 301.853c-.012-2.882-.024-.812 0 0zm266.176 2.251c.038-.789.013-5.474 0 0z"></path>
    <path d="M307.935 298.397c-1.305-82.342-12.059-105.805-94.352-120.657 0 0-11.584 14.761-38.584 14.761s-38.586-14.761-38.586-14.761C55.018 192.43 43.61 215.545 42.11 295.722c-.123 6.547-.18 6.891-.202 6.131.005 1.424.011 4.058.011 8.651 0 0 19.592 39.496 133.08 39.496 113.486 0 133.08-39.496 133.08-39.496 0-2.951.002-5.003.005-6.399-.022.47-.066-.441-.149-5.708z"></path>
  </symbol>
  <symbol viewBox="0 0 16 16" xmlns="http://www.w3.org/2000/svg" id="like-icon">
    <path d="M0 6v8a1 1 0 0 0 1 1h3V5H1a1 1 0 0 0-1 1zm14.153 0H11.2a.491.491 0 0 1-.43-.247.492.492 0 0 1-.007-.496l1.041-1.875c.229-.411.252-.894.065-1.325a1.488 1.488 0 0 0-1.013-.858l-.734-.184a.499.499 0 0 0-.493.15l-3.987 4.43A2.499 2.499 0 0 0 5 7.267V12.5C5 13.878 6.122 15 7.5 15h4.974a2.506 2.506 0 0 0 2.411-1.84l1.068-4.898A1.849 1.849 0 0 0 14.153 6z"></path>
  </symbol>
  <symbol xmlns="http://www.w3.org/2000/svg" viewBox="0 0 216.975 216.975" id="google-maps">
    <path d="M182.442 0H34.53C15.49 0 0 15.491 0 34.531v147.913c0 19.04 15.49 34.53 34.53 34.53h147.912c19.041 0 34.532-15.49 34.532-34.53V34.531C216.975 15.491 201.483 0 182.442 0zm-46.711 48.122C135.731 29.858 150.59 15 168.852 15c18.264 0 33.122 14.858 33.122 33.122 0 12.021-18.405 41.336-33.122 61.603-14.715-20.267-33.121-49.582-33.121-61.603zM15 34.531C15 23.762 23.761 15 34.53 15h99.463c-8.208 8.635-13.262 20.296-13.262 33.122 0 7.455 3.886 17.633 9.306 28.209l-26.846 26.846-.008.007-.007.008-86.695 86.695A19.42 19.42 0 0 1 15 182.445V34.531zm19.53 167.444c-2.635 0-5.146-.531-7.442-1.481l81.399-81.398 81.398 81.398a19.42 19.42 0 0 1-7.443 1.481H34.53zm167.445-19.531c0 2.635-.531 5.146-1.481 7.442l-81.398-81.399 18.555-18.554c10.69 17.785 22.918 33.86 25.262 36.903a7.5 7.5 0 0 0 11.882 0c2.485-3.227 16.085-21.106 27.181-40.141v95.749z"></path>
    <path d="M63.964 98.25c20.009 0 36.287-16.278 36.287-36.287a7.5 7.5 0 0 0-7.5-7.5H63.964a7.5 7.5 0 0 0-7.5 7.5 7.5 7.5 0 0 0 7.5 7.5h19.923C80.848 77.511 73.063 83.25 63.964 83.25c-11.737 0-21.286-9.549-21.286-21.287 0-11.737 9.549-21.286 21.286-21.286 5.684 0 11.03 2.214 15.052 6.234a7.5 7.5 0 0 0 10.605-10.608c-6.854-6.852-15.967-10.625-25.657-10.625-20.008 0-36.286 16.278-36.286 36.286 0 20.008 16.278 36.286 36.286 36.286z"></path>
  </symbol>
  <symbol xmlns="http://www.w3.org/2000/svg" viewBox="0 0 448 448" id="send-icon">
    <path d="M.213 32L0 181.333 320 224 0 266.667.213 416 448 224z"></path>
  </symbol>
  <symbol viewBox="0 0 24 24" xmlns="http://www.w3.org/2000/svg" id="star-icon">
    <path d="M23.363 8.584l-7.378-1.127L12.678.413c-.247-.526-1.11-.526-1.357 0L8.015 7.457.637 8.584a.75.75 0 0 0-.423 1.265l5.36 5.494-1.267 7.767a.75.75 0 0 0 1.103.777L12 20.245l6.59 3.643a.75.75 0 0 0 1.103-.777l-1.267-7.767 5.36-5.494a.75.75 0 0 0-.423-1.266z"
      fill="#ffc107"></path>
  </symbol>
  <symbol xmlns="http://www.w3.org/2000/svg" viewBox="0 0 24 24" id="location-icon">
    <path d="M12 1C8.852 1 6 3.553 6 6.702 6 9.85 8.602 13.609 12 19c3.398-5.391 6-9.15 6-12.298C18 3.553 15.149 1 12 1zm0 8a2 2 0 1 1-.001-3.999A2 2 0 0 1 12 9zm8 6h-3.135a118.64 118.64 0 0 1-1.232 2h3.131l.5 1H15l-.344.544-.289.456h.558l.858 2H8.295l.858-2h.479l-.289-.456L9 18H6.958l-1.011-1h2.42c-.435-.691-.848-1.359-1.232-2H4l-4 8h24l-4-8zM7.206 21h-3.97L5 17.472 6.516 19h1.549l-.859 2zm8.808-2h3.75l1 2h-3.892l-.858-2z"></path>
  </symbol>
  <symbol xmlns="http://www.w3.org/2000/svg" viewBox="0 0 24 24" id="chat-icon">
    <path d="M2.001 9.352c0 1.873.849 2.943 1.683 3.943.031 1 .085 1.668-.333 3.183 1.748-.558 2.038-.778 3.008-1.374 1 .244 1.474.381 2.611.491a6.007 6.007 0 0 0 .055 2.023 14.707 14.707 0 0 1-2.33-.374c-1.397.857-4.481 1.725-6.649 2.115.811-1.595 1.708-3.785 1.661-5.312A7.368 7.368 0 0 1 .002 9.352C.001 4.526 4.72 1 10.001 1c5.237 0 9.977 3.484 9.998 8.318a9.655 9.655 0 0 0-2.021-.314C17.749 5.664 14.265 3 10.001 3c-4.411 0-8 2.85-8 6.352zm20.883 10.169c-.029 1.001.558 2.435 1.088 3.479-1.419-.258-3.438-.824-4.352-1.385a9.356 9.356 0 0 1-2.213.274c-3.865 0-6.498-2.643-6.498-5.442 0-3.174 3.11-5.467 6.546-5.467 3.457 0 6.546 2.309 6.546 5.467a4.82 4.82 0 0 1-1.117 3.074zM15.321 16.5a.82.82 0 1 0-1.641.001.82.82 0 0 0 1.641-.001zm3 0a.82.82 0 1 0-1.641.001.82.82 0 0 0 1.641-.001zm3 0a.82.82 0 1 0-1.641.001.82.82 0 0 0 1.641-.001z"></path>
  </symbol>
  <symbol viewBox="0 0 512 512" xmlns="http://www.w3.org/2000/svg" id="add-file-icon">
    <path d="M400 136.022V119.5a24.028 24.028 0 0 0-24-24H208V128h168a39.788 39.788 0 0 1 24 8.022z"></path>
    <path d="M384 256a112.453 112.453 0 0 1 16 1.148V168a24.028 24.028 0 0 0-24-24H200a8 8 0 0 1-8-8V72a24.027 24.027 0 0 0-24-24H56a24.027 24.027 0 0 0-24 24v320a24.027 24.027 0 0 0 24 24h226.821A111.976 111.976 0 0 1 384 256z"></path>
    <path d="M384 272a96 96 0 1 0 96 96 96.108 96.108 0 0 0-96-96zm56 104h-48v48a8 8 0 0 1-16 0v-48h-48a8 8 0 0 1 0-16h48v-48a8 8 0 0 1 16 0v48h48a8 8 0 0 1 0 16z"></path>
  </symbol>
  <symbol xmlns="http://www.w3.org/2000/svg" viewBox="0 0 512.003 512.003" id="discount-icon">
    <path d="M477.958 262.633a15.004 15.004 0 0 1 0-13.263l19.096-39.065c10.632-21.751 2.208-47.676-19.178-59.023l-38.41-20.38a15.005 15.005 0 0 1-7.796-10.729l-7.512-42.829c-4.183-23.846-26.241-39.87-50.208-36.479l-43.053 6.09a15.004 15.004 0 0 1-12.613-4.099l-31.251-30.232c-17.401-16.834-44.661-16.835-62.061 0L193.72 42.859a15.01 15.01 0 0 1-12.613 4.099l-43.053-6.09c-23.975-3.393-46.025 12.633-50.208 36.479l-7.512 42.827a15.008 15.008 0 0 1-7.795 10.73l-38.41 20.38c-21.386 11.346-29.81 37.273-19.178 59.024l19.095 39.064a15.004 15.004 0 0 1 0 13.263L14.95 301.699c-10.632 21.751-2.208 47.676 19.178 59.023l38.41 20.38a15.005 15.005 0 0 1 7.796 10.729l7.512 42.829c3.808 21.708 22.422 36.932 43.815 36.93 2.107 0 4.245-.148 6.394-.452l43.053-6.09a15 15 0 0 1 12.613 4.099l31.251 30.232c8.702 8.418 19.864 12.626 31.03 12.625 11.163-.001 22.332-4.209 31.03-12.625l31.252-30.232c3.372-3.261 7.968-4.751 12.613-4.099l43.053 6.09c23.978 3.392 46.025-12.633 50.208-36.479l7.513-42.827a15.008 15.008 0 0 1 7.795-10.73l38.41-20.38c21.386-11.346 29.81-37.273 19.178-59.024l-19.096-39.065zM196.941 123.116c29.852 0 54.139 24.287 54.139 54.139s-24.287 54.139-54.139 54.139-54.139-24.287-54.139-54.139 24.287-54.139 54.139-54.139zm-27.944 240.77c-2.883 2.883-6.662 4.325-10.44 4.325s-7.558-1.441-10.44-4.325c-5.766-5.766-5.766-15.115 0-20.881l194.889-194.889c5.765-5.766 15.115-5.766 20.881 0s5.766 15.115 0 20.881l-194.89 194.889zm146.064 25.002c-29.852 0-54.139-24.287-54.139-54.139s24.287-54.139 54.139-54.139c29.852 0 54.139 24.287 54.139 54.139s-24.287 54.139-54.139 54.139z"></path>
    <path d="M315.061 310.141c-13.569 0-24.609 11.039-24.609 24.608s11.039 24.608 24.609 24.608c13.569 0 24.608-11.039 24.608-24.608s-11.039-24.608-24.608-24.608zm-118.12-157.495c-13.569 0-24.608 11.039-24.608 24.608s11.039 24.609 24.608 24.609 24.609-11.039 24.609-24.609c-.001-13.568-11.04-24.608-24.609-24.608z"></path>
  </symbol>
  <symbol xmlns="http://www.w3.org/2000/svg" viewBox="0 0 512 512" id="medal-icon">
    <path d="M294.847 0l-24.848 51.666 8.419 17.079 8.43 17.088 50.126 101.692 8.429 17.089 8.419 17.089L460.474 0z"></path>
    <path d="M392.419 351.633l-94.262-13.699-27.158-55.026V252h98.822v-29.997h-15.849l-.15-.3-.14.3h-33.137L211.093 0H51.526l106.802 222.003h-16.149V252h98.822v30.908l-27.158 55.026-94.262 13.699 68.204 66.484L171.687 512 256 467.673 340.313 512l-16.098-93.883z"></path>
  </symbol>
  <symbol xmlns="http://www.w3.org/2000/svg" viewBox="0 0 246.759 246.759" id="favorite-file-icon">
    <path d="M198.962 201.966l19.564 2.843-14.157 13.799a7.498 7.498 0 0 0-2.156 6.639l3.342 19.485-17.499-9.199a7.5 7.5 0 0 0-6.98 0l-17.498 9.199 3.342-19.485a7.501 7.501 0 0 0-2.156-6.639l-14.157-13.799 19.563-2.843a7.496 7.496 0 0 0 5.647-4.103l8.749-17.728 8.749 17.728a7.498 7.498 0 0 0 5.647 4.103zM173.232 2.383V33h32.267L173.232 2.383zm-25.221 244.376l-112.135-.509c-4.134-.013-7.644-3.617-7.644-7.75V7.5c0-4.143 3.69-7.5 7.833-7.5h122.167v40.5c0 4.143 3.69 7.5 7.833 7.5h42.167v140.204l-3.379-.515-13.646-27.819c-1.264-2.56-3.829-4.181-6.684-4.181s-5.441 1.621-6.705 4.181L164.1 187.688l-30.695 4.462a7.497 7.497 0 0 0-4.153 12.792l22.216 21.653-3.457 20.164zM60.065 76.5c0 4.143 3.357 7.5 7.5 7.5h99c4.143 0 7.5-3.357 7.5-7.5s-3.357-7.5-7.5-7.5h-99a7.5 7.5 0 0 0-7.5 7.5zm0 31c0 4.143 3.357 7.5 7.5 7.5h99c4.143 0 7.5-3.357 7.5-7.5s-3.357-7.5-7.5-7.5h-99a7.5 7.5 0 0 0-7.5 7.5zm7.5 40.5h99c4.143 0 7.5-3.357 7.5-7.5s-3.357-7.5-7.5-7.5h-99c-4.143 0-7.5 3.357-7.5 7.5s3.358 7.5 7.5 7.5z"></path>
  </symbol>
  <symbol xmlns="http://www.w3.org/2000/svg" viewBox="0 0 511.999 511.999" id="team-icon">
    <path d="M438.09 273.32h-39.596c4.036 11.05 6.241 22.975 6.241 35.404v149.65c0 5.182-.902 10.156-2.543 14.782h65.461c24.453 0 44.346-19.894 44.346-44.346v-81.581c.001-40.753-33.155-73.909-73.909-73.909zm-330.825 35.405c0-12.43 2.205-24.354 6.241-35.404H73.91c-40.754 0-73.91 33.156-73.91 73.91v81.581c0 24.452 19.893 44.346 44.346 44.346h65.462a44.144 44.144 0 0 1-2.543-14.783v-149.65zm193.996-73.91h-90.522c-40.754 0-73.91 33.156-73.91 73.91v149.65c0 8.163 6.618 14.782 14.782 14.782h208.778c8.164 0 14.782-6.618 14.782-14.782v-149.65c0-40.754-33.156-73.91-73.91-73.91zM256 38.84c-49.012 0-88.886 39.874-88.886 88.887 0 33.245 18.349 62.28 45.447 77.524 12.853 7.23 27.671 11.362 43.439 11.362s30.586-4.132 43.439-11.362c27.099-15.244 45.447-44.28 45.447-77.524 0-49.012-39.874-88.887-88.886-88.887zM99.918 121.689c-36.655 0-66.475 29.82-66.475 66.475 0 36.655 29.82 66.475 66.475 66.475a66.095 66.095 0 0 0 26.195-5.388c13.906-5.987 25.372-16.585 32.467-29.86a66.05 66.05 0 0 0 7.813-31.227c0-36.654-29.82-66.475-66.475-66.475zm312.164 0c-36.655 0-66.475 29.82-66.475 66.475a66.045 66.045 0 0 0 7.813 31.227c7.095 13.276 18.561 23.874 32.467 29.86a66.095 66.095 0 0 0 26.195 5.388c36.655 0 66.475-29.82 66.475-66.475 0-36.655-29.82-66.475-66.475-66.475z"></path>
  </symbol>
  <symbol viewBox="0 -31 512 512" xmlns="http://www.w3.org/2000/svg" id="portfolio-icon">
    <path d="M211 240h90v30h-90zm0 0"></path>
    <path d="M415.379 270H331v15c0 8.29-6.71 15-15 15H196c-8.29 0-15-6.71-15-15v-15H96.621a44.95 44.95 0 0 1-42.687-30.762L0 77.41V405c0 24.813 20.188 45 45 45h422c24.813 0 45-20.188 45-45V77.422l-53.938 161.816A44.94 44.94 0 0 1 415.38 270zm0 0"></path>
    <path d="M316 0H196c-24.813 0-45 20.188-45 45v15H25.809l56.574 169.746A14.997 14.997 0 0 0 96.62 240H181v-15c0-8.29 6.71-15 15-15h120c8.29 0 15 6.71 15 15v15h84.379c6.46 0 12.187-4.117 14.238-10.254L486.195 60H361V45c0-24.813-20.187-45-45-45zM181 60V45c0-8.277 6.723-15 15-15h120c8.277 0 15 6.723 15 15v15zm0 0"></path>
  </symbol>
  <symbol xmlns="http://www.w3.org/2000/svg" viewBox="0 0 260.666 260.666" id="id-card-icon">
    <path d="M236.666 40.882H24c-13.233 0-24 10.767-24 24v130.902c0 13.233 10.767 24 24 24h212.666c13.233 0 24-10.767 24-24V64.882c0-13.234-10.767-24-24-24zm9 154.902c0 4.962-4.037 9-9 9H24c-4.963 0-9-4.038-9-9V64.882c0-4.962 4.037-9 9-9h212.666c4.963 0 9 4.038 9 9v130.902z"></path>
    <path d="M216.04 83.703h-68.933a6 6 0 0 0 0 12h68.933a6 6 0 0 0 0-12zm0 81.26h-68.933a6 6 0 1 0 0 12h68.933a6 6 0 0 0 0-12zm0-46.552h-41.718a6 6 0 0 0 0 12h41.718a6 6 0 0 0 0-12zm0 23.275h-41.718a6 6 0 0 0 0 12h41.718a6 6 0 1 0 0-12zm-130.877-8.55c17.004 0 30.838-13.839 30.838-30.849 0-17.011-13.834-30.85-30.838-30.85-17.009 0-30.847 13.839-30.847 30.85 0 17.01 13.838 30.849 30.847 30.849zm0-46.698c8.733 0 15.838 7.11 15.838 15.85 0 8.739-7.104 15.849-15.838 15.849-8.738 0-15.847-7.11-15.847-15.849 0-8.74 7.109-15.85 15.847-15.85zm11.934 52.242H73.415c-16.592 0-30.09 13.497-30.09 30.088v12.961c0 4.142 3.357 7.5 7.5 7.5s7.5-3.358 7.5-7.5v-12.961c0-8.319 6.77-15.088 15.09-15.088h23.682c8.32 0 15.09 6.768 15.09 15.088v12.961c0 4.142 3.357 7.5 7.5 7.5s7.5-3.358 7.5-7.5v-12.961c0-16.591-13.499-30.088-30.09-30.088z"></path>
  </symbol>
  <symbol viewBox="0 0 512 512" xmlns="http://www.w3.org/2000/svg" id="support-icon">
    <path d="M256 0C148.059 0 60.234 87.824 60.234 195.766v180.703c0 24.914 20.266 45.18 45.176 45.18 24.914 0 45.18-20.266 45.18-45.18V225.883c0-24.91-20.266-45.176-45.18-45.176-5.07 0-9.867 1.027-14.426 2.574C97.41 97.77 168.887 30.117 256 30.117c87.066 0 158.523 67.59 165.008 153.043-4.531-1.55-9.356-2.453-14.418-2.453-24.914 0-45.18 20.266-45.18 45.176v150.586c0 24.914 20.266 45.18 45.18 45.18 5.305 0 10.324-1.087 15.058-2.774v17.832c0 8.309-6.765 15.059-15.058 15.059H298.402c-6.238-17.493-22.797-30.118-42.402-30.118-24.91 0-45.176 20.266-45.176 45.176C210.824 491.734 231.09 512 256 512c19.605 0 36.164-12.629 42.402-30.117H406.59c24.91 0 45.176-20.266 45.176-45.176V195.766C451.766 87.824 363.94 0 256 0zm225.883 213.598v175.156C499.37 382.52 512 365.96 512 346.352V256c0-19.605-12.629-36.164-30.117-42.402zM0 256v90.352c0 19.609 12.629 36.168 30.117 42.402V213.598C12.63 219.836 0 236.395 0 256zm0 0"></path>
  </symbol>
  <symbol xmlns="http://www.w3.org/2000/svg" viewBox="0 0 512 512" id="mace-icon">
    <path d="M15 512h272c8.285 0 15-6.715 15-15v-16c0-16.57-13.43-30-30-30v-17.934C272 409.32 252.68 390 228.934 390H73.066C49.32 390 30 409.32 30 433.066V451c-16.57 0-30 13.43-30 30v16c0 8.281 6.719 15 15 15zm172.734-181.656c9.97 13.23 28.782 15.875 42.012 5.902 13.234-9.969 15.875-28.781 5.906-42.016L145.38 174.437c-9.973-13.234-28.781-15.875-42.012-5.906-13.234 9.973-15.879 28.781-5.906 42.016zm215.629-162.492c9.973 13.23 28.782 15.875 42.016 5.902 13.23-9.969 15.875-28.777 5.902-42.012L361.008 11.95c-9.969-13.234-28.781-15.879-42.012-5.906-13.23 9.973-15.875 28.781-5.902 42.016zM337.563 255c22.171-16.707 38.816-37.453 49.226-59.297L281.75 56.313c-23.867 3.988-48.395 14.265-70.57 30.976-22.172 16.707-38.817 37.453-49.227 59.293l105.04 139.398c23.866-3.988 48.394-14.27 70.57-30.98zm40.503 3.906c-6.984 7.117-14.34 13.942-22.449 20.055-8.113 6.11-16.703 11.3-25.465 16.055l19.559 25.957 47.918-36.106zm37.618 49.918l-47.918 36.106 90.273 119.797c9.973 13.234 28.781 15.875 42.012 5.906 13.234-9.973 15.875-28.781 5.906-42.016zm0 0"></path>
  </symbol>
  <symbol xmlns="http://www.w3.org/2000/svg" viewBox="0 0 512 512" id="visa-icon">
    <path d="M401.067 213.333L384 256h21.333v-42.667z"></path>
    <path d="M437.333 85.333H74.667C34.133 85.333 0 119.467 0 160v192c0 40.533 34.133 74.667 74.667 74.667h362.667C477.867 426.667 512 392.533 512 352V160c0-40.533-34.133-74.667-74.667-74.667zM160 320h-21.333c-6.4 0-10.667-4.267-10.667-10.667v-96H96c-6.4 0-10.667-4.267-10.667-10.667C85.333 196.267 89.6 192 96 192h42.667c6.4 0 10.667 4.267 10.667 10.667v96h4.267L192 198.4c2.133-4.267 8.533-8.533 14.933-6.4 4.267 2.133 8.533 8.533 6.4 14.933L170.667 313.6c-2.134 4.267-6.4 6.4-10.667 6.4zm64 0h-2.133c-6.4-2.133-8.533-6.4-8.533-12.8l21.333-106.667c2.133-6.4 6.4-8.533 12.8-8.533 6.4 2.133 8.533 6.4 8.533 12.8l-21.333 106.667c0 4.266-6.4 8.533-10.667 8.533zm83.2-74.667c27.733 17.067 29.867 32 27.733 42.667-2.133 10.667-10.667 21.333-21.333 25.6-6.4 4.267-14.933 6.4-23.467 6.4s-17.067-2.133-27.733-4.267c-6.4-2.133-8.533-8.533-6.4-12.8 2.133-6.4 8.533-8.533 12.8-6.4 14.933 4.267 25.6 6.4 34.133 0 6.4-4.267 8.533-10.667 10.667-12.8 2.133-4.267-4.267-12.8-17.067-19.2-8.533-4.266-23.466-14.933-27.733-29.866-2.133-8.533 0-17.067 4.267-23.467 14.933-25.6 57.6-14.933 57.6-14.933 8.533 0 12.8 4.267 10.667 10.667-2.133 6.4-6.4 8.533-12.8 8.533-8.533-2.133-29.867-4.267-36.267 4.267-2.133 4.267-2.133 6.4-2.133 8.533 2.133 6.4 12.799 12.8 17.066 17.066zm119.467 64c0 6.4-4.267 10.667-10.667 10.667-6.4 0-10.667-4.267-10.667-10.667v-32h-29.867l-12.8 36.267c-2.133 4.267-6.4 6.4-10.667 6.4h-4.267c-6.4-2.133-8.533-8.533-6.4-14.933L384 198.4c2.133-4.267 6.4-6.4 10.667-6.4H416c6.4 0 10.667 4.267 10.667 10.667v106.666z"></path>
  </symbol>
  <symbol xmlns="http://www.w3.org/2000/svg" viewBox="0 0 469.333 469.333" id="coins-icon">
    <path d="M192 138.09c0 35.071 69.76 53.426 138.667 53.426s138.667-18.355 138.667-53.426C469.333 67.947 192 67.947 192 138.09z"></path>
    <path d="M464.188 189.836a10.69 10.69 0 0 0-10.469-.323c-28.729 15.068-72.427 23.374-123.052 23.374s-94.323-8.306-123.052-23.374a10.693 10.693 0 0 0-10.469.323 10.676 10.676 0 0 0-5.146 9.141v3.224c0 35.071 69.76 53.426 138.667 53.426s138.667-18.355 138.667-53.426v-3.224a10.68 10.68 0 0 0-5.146-9.141zM64 351.795c0 35.072 69.76 53.426 138.667 53.426s138.667-18.355 138.667-53.426c-.001-70.143-277.334-70.143-277.334 0z"></path>
    <path d="M336.188 403.542c-3.188-1.91-7.167-2.056-10.469-.323-28.729 15.068-72.427 23.374-123.052 23.374s-94.323-8.306-123.052-23.374c-3.302-1.732-7.292-1.586-10.469.323A10.676 10.676 0 0 0 64 412.683v3.224c0 35.072 69.76 53.426 138.667 53.426s138.667-18.355 138.667-53.426v-3.224a10.68 10.68 0 0 0-5.146-9.141zM138.667 106.034c14.406 0 28.813-.814 42.823-2.431a10.668 10.668 0 0 0 6.094-2.828c16.156-15.235 43.76-26.473 79.823-32.494a10.667 10.667 0 0 0 8.292-6.939c1.104-3.078 1.635-5.937 1.635-8.734C277.333-17.536 0-17.536 0 52.607c0 35.072 69.76 53.427 138.667 53.427zm0 64.111c8.833 0 17.448-.303 25.792-.856a10.671 10.671 0 0 0 8.25-4.863 10.744 10.744 0 0 0 1.042-9.527c-2.073-5.583-3.083-11.082-3.031-17.384a10.68 10.68 0 0 0-3.313-7.732c-2.104-2.014-5.073-3.235-7.865-2.943-6.969.334-13.938.563-20.875.563-50.625 0-94.323-8.306-123.052-23.374a10.695 10.695 0 0 0-10.469.323A10.682 10.682 0 0 0 0 113.495v3.224c0 35.072 69.76 53.426 138.667 53.426zm0 64.112c8.833 0 17.448-.303 25.792-.856a10.671 10.671 0 0 0 8.25-4.863 10.744 10.744 0 0 0 1.042-9.527c-2.073-5.583-3.083-11.082-3.083-17.384a10.68 10.68 0 0 0-3.313-7.732c-2.104-2.014-5.021-3.162-7.865-2.943-6.948.334-13.896.563-20.823.563-50.625 0-94.323-8.306-123.052-23.374a10.695 10.695 0 0 0-10.469.323A10.681 10.681 0 0 0 0 177.606v3.224c0 35.072 69.76 53.427 138.667 53.427zm325.521 83.802a10.613 10.613 0 0 0-10.469-.323c-20.073 10.529-48.313 17.885-81.656 21.256-5.625.574-9.635 7.148-9.396 12.804 0 5.416-.875 10.591-2.667 15.798a10.716 10.716 0 0 0 1.74 10.143 10.68 10.68 0 0 0 8.344 4.028c.375 0 .76-.021 1.146-.063 61.427-6.637 98.104-25.805 98.104-51.277V327.2a10.683 10.683 0 0 0-5.146-9.141zm-261.521-41.061l7.073.125h.188c4.979 0 9.302-3.454 10.406-8.327a10.687 10.687 0 0 0-5.99-12.084l-2.281-1.023c-1.521-.668-3.052-1.336-4.469-2.077-3.323-1.743-7.26-1.586-10.458.344a10.67 10.67 0 0 0-5.135 9.13v3.224c-.001 5.909 4.77 10.688 10.666 10.688zm261.521-23.05a10.69 10.69 0 0 0-10.469-.323c-28.729 15.068-72.427 23.374-123.052 23.374l-7.042-.136c-4.302-.365-9.448 3.423-10.542 8.358a10.672 10.672 0 0 0 5.99 12.052c11.552 5.259 20.99 11.51 28.042 18.574a10.673 10.673 0 0 0 8.219 3.099c52.583-3.339 114-19.127 114-52.633v-3.224a10.68 10.68 0 0 0-5.146-9.141zm-374.98 41.103c1.333 0 2.667-.25 3.927-.751 18.792-7.44 41.708-12.564 68.125-15.224 5.625-.563 9.646-7.68 9.406-13.336a10.68 10.68 0 0 0-3.313-7.732c-2.104-2.014-5.021-3.089-7.865-2.943-6.948.334-13.896.563-20.823.563-50.625 0-94.323-8.306-123.052-23.374a10.695 10.695 0 0 0-10.469.323A10.68 10.68 0 0 0 0 241.718v3.224c0 23.614 32.792 42.313 87.729 50.004.49.073.99.105 1.479.105z"></path>
  </symbol>
  <symbol xmlns="http://www.w3.org/2000/svg" fill-rule="evenodd" clip-rule="evenodd" id="nostific-icon">
    <path d="M24 21h-3l1-3h1l1 3zm-12.976-4.543L20 11.882V18c-1.007 2.041-5.607 3-8.5 3-3.175 0-7.389-.994-8.5-3v-6.614l8.024 5.071zM23 17h-1V9.74l-10.923 5.568L0 8.308 12 3l11 6.231V17z"></path>
  </symbol>
  <symbol xmlns="http://www.w3.org/2000/svg" viewBox="0 0 24 24" id="speaker-icon">
    <path d="M5 17H0V7h5v10zM7 7v10l9 5V2L7 7zm11.008 2.093c.742.743 1.2 1.77 1.198 2.903a4.095 4.095 0 0 1-1.205 2.9l1.219 1.223a5.815 5.815 0 0 0 1.715-4.121 5.81 5.81 0 0 0-1.702-4.125l-1.225 1.22zm2.142-2.135c1.288 1.292 2.082 3.073 2.079 5.041s-.804 3.75-2.096 5.039l1.25 1.254a8.878 8.878 0 0 0 2.616-6.291 8.85 8.85 0 0 0-2.595-6.293l-1.254 1.25z"></path>
  </symbol>
  <symbol viewBox="0 0 494.942 494.942" xmlns="http://www.w3.org/2000/svg" id="play-button-icon">
    <path d="M35.353 0l424.236 247.471L35.353 494.942z"></path>
  </symbol>
  <symbol xmlns="http://www.w3.org/2000/svg" viewBox="0 0 298.667 298.667" id="btn-close">
    <path d="M298.667 30.187L268.48 0 149.333 119.147 30.187 0 0 30.187l119.147 119.146L0 268.48l30.187 30.187L149.333 179.52 268.48 298.667l30.187-30.187L179.52 149.333z"></path>
  </symbol>
  <symbol xmlns="http://www.w3.org/2000/svg" viewBox="0 0 39 40" id="social-frame">
    <defs>
      <clipPath id="a">
        <path d="M33.362 34.458l-6.603-1.175-2.437 6.248-5.131-4.318-5.235 4.192-2.284-6.306-6.63 1.013 1.175-6.603-6.249-2.437 4.32-5.131-4.193-5.235L6.4 12.42 5.386 5.79l6.603 1.175L14.428.718l5.131 4.319L24.794.844l2.284 6.306 6.63-1.013-1.175 6.603 6.248 2.437-4.318 5.132 4.192 5.235-6.306 2.284z"></path>
      </clipPath>
    </defs>
    <path d="M33.362 34.458l-6.603-1.175-2.437 6.248-5.131-4.318-5.235 4.192-2.284-6.306-6.63 1.013 1.175-6.603-6.249-2.437 4.32-5.131-4.193-5.235L6.4 12.42 5.386 5.79l6.603 1.175L14.428.718l5.131 4.319L24.794.844l2.284 6.306 6.63-1.013-1.175 6.603 6.248 2.437-4.318 5.132 4.192 5.235-6.306 2.284z"></path>
    <path fill="none" stroke="#fff" stroke-miterlimit="20" stroke-width="2" d="M33.362 34.458l-6.603-1.175-2.437 6.248-5.131-4.318-5.235 4.192-2.284-6.306-6.63 1.013 1.175-6.603-6.249-2.437 4.32-5.131-4.194-5.235L6.4 12.42 5.386 5.79l6.603 1.175L14.428.718l5.131 4.319L24.794.844l2.284 6.306 6.63-1.013-1.175 6.603 6.248 2.437-4.318 5.132 4.192 5.235-6.306 2.284z"
      clip-path="url(&amp;quot;#a&amp;quot;)"></path>
  </symbol>
  <symbol viewBox="-119 -21 682 682.667" xmlns="http://www.w3.org/2000/svg" id="gps">
    <path d="M216.21 0C93.548 0-6.25 99.797-6.25 222.46-6.25 376.638 216.43 640 216.43 640s222.242-270.945 222.242-417.54C438.672 99.798 338.879 0 216.21 0zm67.122 287.598c-18.508 18.504-42.812 27.757-67.121 27.757-24.305 0-48.617-9.253-67.117-27.757-37.012-37.008-37.012-97.227 0-134.239 17.922-17.93 41.761-27.804 67.117-27.804 25.355 0 49.191 9.879 67.121 27.804 37.012 37.012 37.012 97.23 0 134.239zm0 0"></path>
  </symbol>
  <symbol viewBox="0 -39 512.002 512" xmlns="http://www.w3.org/2000/svg" id="telegram">
    <path d="M504.098 11.863C497.84 4.215 488.473 0 477.718 0c-5.85 0-12.042 1.234-18.41 3.664L25.907 169.105c-23 8.778-26.097 21.95-25.898 29.024.199 7.07 4.039 20.047 27.5 27.508.14.047.281.086.422.129l60.78 17.39 296.017-151.23c7.375-3.774 16.414-.844 20.183 6.535 2.961 5.797 1.774 12.61-2.445 17.094l.012.011-164.586 174.88-4.696 19.027L291.97 356.8l81.445 65.582c.07.055.14.113.215.168 8.96 6.953 18.75 10.625 28.308 10.629 18.68 0 33.551-13.825 37.883-35.215l71.012-350.64c2.848-14.071.457-26.669-6.734-35.462zm0 0"></path>
    <path d="M209.715 279.438a14.956 14.956 0 0 1 3.633-6.688l107.996-114.754L120.94 260.38l45.504 130.137c2.594 7.414 6.453 13.726 11.227 18.668l32.035-129.75zm-4.113 141.792c10.816-.09 21.445-4.652 30.757-13.226l33.293-30.656-44.39-35.743zm0 0"></path>
  </symbol>
  <symbol viewBox="0 0 24 24" xmlns="http://www.w3.org/2000/svg" id="viber">
    <path d="M23.155 13.893c.716-6.027-.344-9.832-2.256-11.553l.001-.001C17.814-.6 7.392-1.035 3.7 2.471 2.042 4.186 1.458 6.703 1.394 9.819c-.064 3.117-.14 8.956 5.301 10.54H6.7l-.005 2.419s-.037.98.589 1.177c.716.232 1.04-.223 3.267-2.883 3.724.323 6.584-.417 6.909-.525.752-.252 5.007-.815 5.695-6.654zM10.918 19.37s-2.357 2.939-3.09 3.702c-.24.248-.503.225-.499-.267 0-.323.018-4.016.018-4.016-4.613-1.322-4.341-6.294-4.291-8.895.05-2.602.526-4.733 1.93-6.168C8.225.689 17.362 1.368 19.69 3.556c2.846 2.523 1.833 9.651 1.839 9.894-.585 4.874-4.033 5.183-4.667 5.394-.271.09-2.786.737-5.944.526z"></path>
    <path d="M12.222 4.297c-.385 0-.385.6 0 .605 2.987.023 5.447 2.105 5.474 5.924 0 .403.59.398.585-.005h-.001c-.032-4.115-2.718-6.501-6.058-6.524z"></path>
    <path d="M16.151 10.193c-.009.398.58.417.585.014.049-2.269-1.35-4.138-3.979-4.335-.385-.028-.425.577-.041.605 2.28.173 3.481 1.729 3.435 3.716zm-.63 2.581c-.494-.286-.997-.108-1.205.173l-.435.563c-.221.286-.634.248-.634.248-3.014-.797-3.82-3.951-3.82-3.951s-.037-.427.239-.656l.544-.45c.272-.216.444-.736.167-1.247-.74-1.337-1.237-1.798-1.49-2.152-.266-.333-.666-.408-1.082-.183h-.009c-.865.506-1.812 1.453-1.509 2.428.517 1.028 1.467 4.305 4.495 6.781 1.423 1.171 3.675 2.371 4.631 2.648l.009.014c.942.314 1.858-.67 2.347-1.561v-.007c.217-.431.145-.839-.172-1.106-.562-.548-1.41-1.153-2.076-1.542z"></path>
    <path d="M13.169 8.104c.961.056 1.427.558 1.477 1.589.018.403.603.375.585-.028-.064-1.346-.766-2.096-2.03-2.166-.385-.023-.421.582-.032.605z"></path>
  </symbol>
  <symbol viewBox="0 0 24 24" xmlns="http://www.w3.org/2000/svg" id="skype">
    <path d="M23.309 14.547C25.047 6.737 18.205-.358 10.17 1.004 5.808-1.703 0 1.356 0 6.546c0 1.207.333 2.337.912 3.311-1.615 7.828 5.283 14.821 13.311 13.366 5.675 3.001 11.946-2.984 9.086-8.676zm-7.638 4.71c-2.108.867-5.577.872-7.676-.227-2.993-1.596-3.525-5.189-.943-5.189 1.946 0 1.33 2.269 3.295 3.194.902.417 2.841.46 3.968-.3 1.113-.745 1.011-1.917.406-2.477-1.603-1.48-6.19-.892-8.287-3.483-.911-1.124-1.083-3.107.037-4.545 1.952-2.512 7.68-2.665 10.143-.768 2.274 1.76 1.66 4.096-.175 4.096-2.207 0-1.047-2.888-4.61-2.888-2.583 0-3.599 1.837-1.78 2.731 2.466 1.225 8.75.816 8.75 5.603-.005 1.992-1.226 3.477-3.128 4.253z"></path>
  </symbol>
  <symbol xmlns="http://www.w3.org/2000/svg" viewBox="0 0 512 512" id="mail">
    <path d="M10.688 95.156C80.958 154.667 204.26 259.365 240.5 292.01c4.865 4.406 10.083 6.646 15.5 6.646 5.406 0 10.615-2.219 15.469-6.604 36.271-32.677 159.573-137.385 229.844-196.896 4.375-3.698 5.042-10.198 1.5-14.719C494.625 69.99 482.417 64 469.333 64H42.667c-13.083 0-25.292 5.99-33.479 16.438-3.542 4.52-2.875 11.02 1.5 14.718z"></path>
    <path d="M505.813 127.406a10.618 10.618 0 0 0-11.375 1.542C416.51 195.01 317.052 279.688 285.76 307.885c-17.563 15.854-41.938 15.854-59.542-.021-33.354-30.052-145.042-125-208.656-178.917a10.674 10.674 0 0 0-11.375-1.542A10.674 10.674 0 0 0 0 137.083v268.25C0 428.865 19.135 448 42.667 448h426.667C492.865 448 512 428.865 512 405.333v-268.25a10.66 10.66 0 0 0-6.187-9.677z"></path>
  </symbol>
  <symbol xmlns="http://www.w3.org/2000/svg" viewBox="0 0 384 384" id="phone-call">
    <path d="M353.188 252.052c-23.51 0-46.594-3.677-68.469-10.906-10.719-3.656-23.896-.302-30.438 6.417l-43.177 32.594c-50.073-26.729-80.917-57.563-107.281-107.26l31.635-42.052c8.219-8.208 11.167-20.198 7.635-31.448-7.26-21.99-10.948-45.063-10.948-68.583C132.146 13.823 118.323 0 101.333 0h-70.52C13.823 0 0 13.823 0 30.813 0 225.563 158.438 384 353.188 384c16.99 0 30.813-13.823 30.813-30.813v-70.323c-.001-16.989-13.824-30.812-30.813-30.812z"></path>
  </symbol>
  <symbol xmlns="http://www.w3.org/2000/svg" viewBox="0 0 24 24" id="google-icon">
    <path d="M12.545 10.239v3.821h5.445c-.712 2.315-2.647 3.972-5.445 3.972a6.033 6.033 0 1 1 0-12.064c1.498 0 2.866.549 3.921 1.453l2.814-2.814A9.969 9.969 0 0 0 12.545 2C7.021 2 2.543 6.477 2.543 12s4.478 10 10.002 10c8.396 0 10.249-7.85 9.426-11.748l-9.426-.013z"></path>
  </symbol>
  <symbol xmlns="http://www.w3.org/2000/svg" viewBox="0 0 512 512" id="twitter">
    <path d="M512 97.248c-19.04 8.352-39.328 13.888-60.48 16.576 21.76-12.992 38.368-33.408 46.176-58.016-20.288 12.096-42.688 20.64-66.56 25.408C411.872 60.704 384.416 48 354.464 48c-58.112 0-104.896 47.168-104.896 104.992 0 8.32.704 16.32 2.432 23.936-87.264-4.256-164.48-46.08-216.352-109.792-9.056 15.712-14.368 33.696-14.368 53.056 0 36.352 18.72 68.576 46.624 87.232-16.864-.32-33.408-5.216-47.424-12.928v1.152c0 51.008 36.384 93.376 84.096 103.136-8.544 2.336-17.856 3.456-27.52 3.456-6.72 0-13.504-.384-19.872-1.792 13.6 41.568 52.192 72.128 98.08 73.12-35.712 27.936-81.056 44.768-130.144 44.768-8.608 0-16.864-.384-25.12-1.44C46.496 446.88 101.6 464 161.024 464c193.152 0 298.752-160 298.752-298.688 0-4.64-.16-9.12-.384-13.568 20.832-14.784 38.336-33.248 52.608-54.496z"></path>
  </symbol>
  <symbol viewBox="0 0 512 512" xmlns="http://www.w3.org/2000/svg" id="facebook">
    <path d="M297.277 508.668zm5.121-.875c-1.02.187-2.039.36-3.058.535 1.02-.176 2.039-.348 3.058-.535zm-17.261 2.547zm4.918-.602zm19.312-3.328zm17.297-4.297c-.726.207-1.453.403-2.18.606.727-.203 1.454-.399 2.18-.606zm-5.23 1.43c-.79.207-1.582.418-2.375.617.793-.2 1.586-.406 2.375-.617zm-6.844 1.711c-.836.195-1.68.379-2.524.566.844-.187 1.688-.37 2.524-.566zm-37.063 5.836zM512 256C512 114.637 397.363 0 256 0S0 114.637 0 256s114.637 256 256 256c1.504 0 3-.031 4.5-.059V312.656h-55V248.56h55v-47.17c0-54.703 33.395-84.477 82.191-84.477 23.368 0 43.454 1.742 49.309 2.52v57.171h-33.648c-26.547 0-31.688 12.618-31.688 31.13v40.824h63.477l-8.274 64.097h-55.203V502.11C433.668 471.434 512 372.852 512 256zM272.914 511.43zm-8.16.406zm0 0"></path>
  </symbol>
  <symbol xmlns="http://www.w3.org/2000/svg" viewBox="0 0 256 256" id="right-arrow">
    <path d="M79.093 0L48.907 30.187 146.72 128l-97.813 97.813L79.093 256l128-128z"></path>
  </symbol>
  <symbol xmlns="http://www.w3.org/2000/svg" viewBox="0 0 256 256" id="down-arrow">
    <path d="M225.813 48.907L128 146.72 30.187 48.907 0 79.093l128 128 128-128z"></path>
  </symbol>
  <symbol xmlns="http://www.w3.org/2000/svg" viewBox="0 0 512 512" id="phone">
    <path d="M503.28 129.021C437.251 59.583 349.428 21.333 256 21.333S74.749 59.583 8.72 129.021c-11.626 12.229-11.626 32.115 0 44.344l49.194 51.729c11.585 12.146 32.046 12.146 43.63 0 16.481-17.323 35.171-31.583 55.507-42.333 10.189-5.26 16.773-16.313 16.69-26.75l7.418-56.062c54.423-17.396 95.824-17.385 149.706-.01l7.334 54.667c0 11.823 6.272 22.615 16.523 28.25 20.419 10.802 39.13 25.063 55.611 42.375 5.772 6.094 13.523 9.438 21.815 9.438 8.293 0 16.044-3.344 21.815-9.427l49.319-51.875c11.625-12.232 11.625-32.117-.002-44.346z"></path>
    <path d="M394.792 220.229A53.252 53.252 0 0 0 347.729 192H164.271a53.252 53.252 0 0 0-47.063 28.229L48.938 348.24a53.585 53.585 0 0 0-6.271 25.094V448c0 23.531 19.146 42.667 42.667 42.667h341.333c23.521 0 42.667-19.135 42.667-42.667v-74.667a53.66 53.66 0 0 0-6.271-25.104l-68.271-128zM191.979 426.667c-11.771 0-21.333-9.573-21.333-21.333 0-11.76 9.563-21.333 21.333-21.333 11.771 0 21.333 9.573 21.333 21.333.001 11.76-9.562 21.333-21.333 21.333zm0-64c-11.771 0-21.333-9.573-21.333-21.333 0-11.76 9.563-21.333 21.333-21.333 11.771 0 21.333 9.573 21.333 21.333.001 11.76-9.562 21.333-21.333 21.333zm0-64c-11.771 0-21.333-9.573-21.333-21.333 0-11.76 9.563-21.333 21.333-21.333 11.771 0 21.333 9.573 21.333 21.333.001 11.76-9.562 21.333-21.333 21.333zm64.021 128c-11.771 0-21.333-9.573-21.333-21.333 0-11.76 9.563-21.333 21.333-21.333s21.333 9.573 21.333 21.333c0 11.76-9.562 21.333-21.333 21.333zm0-64c-11.771 0-21.333-9.573-21.333-21.333 0-11.76 9.563-21.333 21.333-21.333s21.333 9.573 21.333 21.333c0 11.76-9.562 21.333-21.333 21.333zm0-64c-11.771 0-21.333-9.573-21.333-21.333 0-11.76 9.563-21.333 21.333-21.333s21.333 9.573 21.333 21.333c0 11.76-9.562 21.333-21.333 21.333zm63.979 128c-11.771 0-21.333-9.573-21.333-21.333 0-11.76 9.563-21.333 21.333-21.333 11.771 0 21.333 9.573 21.333 21.333.001 11.76-9.562 21.333-21.333 21.333zm0-64c-11.771 0-21.333-9.573-21.333-21.333 0-11.76 9.563-21.333 21.333-21.333 11.771 0 21.333 9.573 21.333 21.333.001 11.76-9.562 21.333-21.333 21.333zm0-64c-11.771 0-21.333-9.573-21.333-21.333 0-11.76 9.563-21.333 21.333-21.333 11.771 0 21.333 9.573 21.333 21.333.001 11.76-9.562 21.333-21.333 21.333z"></path>
  </symbol>
  <symbol xmlns="http://www.w3.org/2000/svg" viewBox="0 0 511.999 511.999" id="search">
    <path d="M508.874 478.708L360.142 329.976c28.21-34.827 45.191-79.103 45.191-127.309C405.333 90.917 314.416 0 202.666 0S0 90.917 0 202.667s90.917 202.667 202.667 202.667c48.206 0 92.482-16.982 127.309-45.191l148.732 148.732c4.167 4.165 10.919 4.165 15.086 0l15.081-15.082c4.165-4.166 4.165-10.92-.001-15.085zM202.667 362.667c-88.229 0-160-71.771-160-160s71.771-160 160-160 160 71.771 160 160-71.771 160-160 160z"></path>
  </symbol>
  <symbol xmlns="http://www.w3.org/2000/svg" viewBox="0 0 512.006 512.006" id="eye-icon">
    <path d="M507.082 244.168l-48.763-48.763C342.838 80.53 169.122 80.535 54.287 195.371L4.991 244.106a16.812 16.812 0 0 0-.073 23.836l48.769 48.769c57.67 57.367 129.972 86.048 202.302 86.048 72.324 0 144.671-28.698 202.358-86.088l48.735-48.735a16.807 16.807 0 0 0 0-23.768zm-72.476 48.707c-101.812 101.302-255.389 101.291-357.184.034l-36.781-36.787 37.341-36.916c101.38-101.38 254.706-101.375 356.596 0l36.848 36.848-36.82 36.821z"></path>
    <path d="M256 155.789c-55.289 0-100.271 44.982-100.271 100.271S200.711 356.331 256 356.331s100.271-44.982 100.271-100.271S311.289 155.789 256 155.789zm0 166.932c-36.759 0-66.661-29.902-66.661-66.661S219.241 189.4 256 189.4s66.655 29.908 66.655 66.661-29.896 66.66-66.655 66.66z"></path>
    <path d="M256 210.126v33.611c6.913 0 12.324 5.417 12.324 12.324s-5.411 12.324-12.324 12.324-12.324-5.417-12.324-12.324h-33.611c0 25.326 20.609 45.934 45.934 45.934 25.331 0 45.934-20.603 45.934-45.934S281.326 210.126 256 210.126z"></path>
  </symbol>
  <symbol xmlns="http://www.w3.org/2000/svg" viewBox="0 0 512 512" id="calculator">
    <path d="M384 0H128C99.84 0 76.8 23.04 76.8 51.2v409.6c0 28.16 23.04 51.2 51.2 51.2h256c28.16 0 51.2-23.04 51.2-51.2V51.2C435.2 23.04 412.16 0 384 0zM179.2 460.8H128v-51.2h51.2v51.2zm0-102.4H128v-51.2h51.2v51.2zm0-102.4H128v-51.2h51.2V256zm102.4 204.8h-51.2v-51.2h51.2v51.2zm0-102.4h-51.2v-51.2h51.2v51.2zm0-102.4h-51.2v-51.2h51.2V256zM384 460.8h-51.2V307.2H384v153.6zm0-204.8h-51.2v-51.2H384V256zm0-102.4H128V51.2h256v102.4z"></path>
  </symbol>
</svg>