<svg width="0" height="0" class="hidden">
  <symbol xmlns="http://www.w3.org/2000/svg" viewBox="0 0 24 24" id="search">
    <path d="M23.822 20.88l-6.353-6.354a9.407 9.407 0 0 0 1.467-5.059C18.937 4.248 14.689 0 9.468 0S0 4.248 0 9.468c0 5.221 4.247 9.469 9.468 9.469a9.41 9.41 0 0 0 4.839-1.333L20.703 24l3.119-3.12zM3.528 9.468A5.947 5.947 0 0 1 9.467 3.53a5.946 5.946 0 0 1 5.94 5.938 5.946 5.946 0 0 1-5.94 5.939 5.946 5.946 0 0 1-5.939-5.939z"></path>
  </symbol>
  <symbol xmlns="http://www.w3.org/2000/svg" viewBox="0 0 26 26" id="send-icon">
    <path d="M0 2v8.5L15 13 0 15.5V24l26-11z"></path>
  </symbol>
  <symbol xmlns="http://www.w3.org/2000/svg" viewBox="0 0 24 24" id="skype">
    <path d="M20.908 13.22c.054-.4.092-.805.092-1.22a9 9 0 0 0-9-9c-.415 0-.82.038-1.22.092A5.47 5.47 0 0 0 7.5 2 5.5 5.5 0 0 0 2 7.5a5.47 5.47 0 0 0 1.092 3.28C3.038 11.18 3 11.585 3 12a9 9 0 0 0 9 9c.415 0 .82-.038 1.22-.092A5.47 5.47 0 0 0 16.5 22a5.5 5.5 0 0 0 5.5-5.5 5.47 5.47 0 0 0-1.092-3.28zM11.979 17c-2.782 0-4.381-1.458-4.381-2.89 0-.73.764-.963 1.07-.963.707 0 .942.577 1.07.841.717 1.476 1.407 1.282 2.087 1.346.601.057 2.011-.208 2.011-1.238 0-.098.155-.768-1.062-1.101-.778-.212-2.149-.473-3.278-.907-1.062-.408-1.684-1.25-1.684-2.334 0-.545.277-2.754 4.037-2.754 2.508 0 3.846 1.285 3.846 2.416 0 .26-.099.489-.298.696s-.761.508-1.376.115c-.155-.099-.282-.306-.436-.573-.184-.337-.486-.987-1.873-.987-1.347 0-1.72.643-1.72.91 0 .9 1.718 1.089 2.179 1.208 1.684.434 3.976.833 3.976 3.104C16.145 16.497 13.433 17 11.979 17z"></path>
  </symbol>
  <symbol xmlns="http://www.w3.org/2000/svg" viewBox="0 0 39 40" id="social-frame">
    <defs>
      <clipPath id="a">
        <path d="M33.362 34.458l-6.603-1.175-2.437 6.248-5.131-4.318-5.235 4.192-2.284-6.306-6.63 1.013 1.175-6.603-6.249-2.437 4.32-5.131-4.193-5.235L6.4 12.42 5.386 5.79l6.603 1.175L14.428.718l5.131 4.319L24.794.844l2.284 6.306 6.63-1.013-1.175 6.603 6.248 2.437-4.318 5.132 4.192 5.235-6.306 2.284z"></path>
      </clipPath>
    </defs>
    <path d="M33.362 34.458l-6.603-1.175-2.437 6.248-5.131-4.318-5.235 4.192-2.284-6.306-6.63 1.013 1.175-6.603-6.249-2.437 4.32-5.131-4.193-5.235L6.4 12.42 5.386 5.79l6.603 1.175L14.428.718l5.131 4.319L24.794.844l2.284 6.306 6.63-1.013-1.175 6.603 6.248 2.437-4.318 5.132 4.192 5.235-6.306 2.284z"></path>
    <path fill="none" stroke="#fff" stroke-miterlimit="20" stroke-width="2" d="M33.362 34.458l-6.603-1.175-2.437 6.248-5.131-4.318-5.235 4.192-2.284-6.306-6.63 1.013 1.175-6.603-6.249-2.437 4.32-5.131-4.194-5.235L6.4 12.42 5.386 5.79l6.603 1.175L14.428.718l5.131 4.319L24.794.844l2.284 6.306 6.63-1.013-1.175 6.603 6.248 2.437-4.318 5.132 4.192 5.235-6.306 2.284z"
      clip-path="url(&amp;quot;#a&amp;quot;)"></path>
  </symbol>
  <symbol xmlns="http://www.w3.org/2000/svg" viewBox="0 0 7 12" id="sort-icon">
    <path fill="#ffc000" d="M3.473.571l3.54 4.437h-7.08zm0 10.703l3.54-4.437h-7.08z"></path>
  </symbol>
  <symbol xmlns="http://www.w3.org/2000/svg" viewBox="0 0 24 24" id="speaker-icon">
    <path d="M5 17H0V7h5v10zM7 7v10l9 5V2L7 7zm11.008 2.093c.742.743 1.2 1.77 1.198 2.903a4.095 4.095 0 0 1-1.205 2.9l1.219 1.223a5.815 5.815 0 0 0 1.715-4.121 5.81 5.81 0 0 0-1.702-4.125l-1.225 1.22zm2.142-2.135c1.288 1.292 2.082 3.073 2.079 5.041s-.804 3.75-2.096 5.039l1.25 1.254a8.878 8.878 0 0 0 2.616-6.291 8.85 8.85 0 0 0-2.595-6.293l-1.254 1.25z"></path>
  </symbol>
  <symbol viewBox="0 0 24 24" xmlns="http://www.w3.org/2000/svg" id="star-icon">
    <path d="M23.363 8.584l-7.378-1.127L12.678.413c-.247-.526-1.11-.526-1.357 0L8.015 7.457.637 8.584a.75.75 0 0 0-.423 1.265l5.36 5.494-1.267 7.767a.75.75 0 0 0 1.103.777L12 20.245l6.59 3.643a.75.75 0 0 0 1.103-.777l-1.267-7.767 5.36-5.494a.75.75 0 0 0-.423-1.266z"
      fill="#ffc107"></path>
  </symbol>
  <symbol viewBox="0 0 512 512" xmlns="http://www.w3.org/2000/svg" id="support-icon">
    <path d="M256 0C148.059 0 60.234 87.824 60.234 195.766v180.703c0 24.914 20.266 45.18 45.176 45.18 24.914 0 45.18-20.266 45.18-45.18V225.883c0-24.91-20.266-45.176-45.18-45.176-5.07 0-9.867 1.027-14.426 2.574C97.41 97.77 168.887 30.117 256 30.117c87.066 0 158.523 67.59 165.008 153.043-4.531-1.55-9.356-2.453-14.418-2.453-24.914 0-45.18 20.266-45.18 45.176v150.586c0 24.914 20.266 45.18 45.18 45.18 5.305 0 10.324-1.087 15.058-2.774v17.832c0 8.309-6.765 15.059-15.058 15.059H298.402c-6.238-17.493-22.797-30.118-42.402-30.118-24.91 0-45.176 20.266-45.176 45.176C210.824 491.734 231.09 512 256 512c19.605 0 36.164-12.629 42.402-30.117H406.59c24.91 0 45.176-20.266 45.176-45.176V195.766C451.766 87.824 363.94 0 256 0zm225.883 213.598v175.156C499.37 382.52 512 365.96 512 346.352V256c0-19.605-12.629-36.164-30.117-42.402zM0 256v90.352c0 19.609 12.629 36.168 30.117 42.402V213.598C12.63 219.836 0 236.395 0 256zm0 0"></path>
  </symbol>
  <symbol xmlns="http://www.w3.org/2000/svg" viewBox="0 0 50 50" id="team-icon">
    <path d="M26.906 5c-8.867 0-12.16 6.852-9.625 12.656-.316.211-.824.871-.718 2.032.21 2.109 1.16 2.613 1.687 2.718.21 2.004 1.48 4.34 2.219 4.657a52.6 52.6 0 0 1-.125 4c-1.617 4.246-11.953 3.261-13.282 10.875-.058.332.286 1.062.97 1.062H42c1.016 0 .996-.75.938-1.094-1.352-7.582-11.665-6.601-13.282-10.843a54.013 54.013 0 0 1-.125-4c.739-.317 1.914-2.758 2.125-4.657.528 0 1.371-.636 1.688-2.75.105-1.16-.328-1.894-.75-2 1.687-2.11 1.383-10.75-4.844-10.75zm-11.75 5c-6.676.113-9.601 5.426-7.594 9.969-.214.105-.636.664-.53 1.625.214 1.71.85 2.125 1.28 2.125.211 1.601 1.157 3.398 1.688 3.718 0 1.067.012 1.036-.094 2.313C9.04 32.484 0 32.281 0 39c0 0 0 1 1 1h4.531c1.528-4.32 5.68-5.984 8.813-7.219 1.726-.68 3.496-1.367 4.031-2.218.059-.93.09-1.72.094-2.594-.95-1.086-1.657-2.778-2-4.219-.813-.602-1.692-1.758-1.907-3.906-.093-1.02.122-1.867.47-2.532-.794-2.464-.743-5.039.124-7.312zM38 10c-.957 0-2.086.078-3.156.25.8 2.348.832 5.152.125 7.156.312.688.457 1.524.375 2.438l-.032.062v.063c-.296 1.965-1.019 3.16-1.874 3.812-.325 1.352-.985 3.059-1.907 4.157.004.859.035 1.632.094 2.625.535.851 2.309 1.539 4.031 2.218 3.13 1.23 7.282 2.899 8.813 7.219H49c1 0 1-.969 1-.969.004-7.734-8.559-5.902-9.844-9.437-.11-1.18-.125-1.07-.125-2.25.535-.32 1.52-2.121 1.625-3.625.43 0 1.067-.442 1.282-2.157.105-.855-.211-1.488-.532-1.593 1.29-1.715 1.078-8.469-3.75-8.469z"></path>
  </symbol>
  <symbol viewBox="0 -39 512.002 512" xmlns="http://www.w3.org/2000/svg" id="telegram">
    <path d="M504.098 11.863C497.84 4.215 488.473 0 477.718 0c-5.85 0-12.042 1.234-18.41 3.664L25.907 169.105c-23 8.778-26.097 21.95-25.898 29.024.199 7.07 4.039 20.047 27.5 27.508.14.047.281.086.422.129l60.78 17.39 296.017-151.23c7.375-3.774 16.414-.844 20.183 6.535 2.961 5.797 1.774 12.61-2.445 17.094l.012.011-164.586 174.88-4.696 19.027L291.97 356.8l81.445 65.582c.07.055.14.113.215.168 8.96 6.953 18.75 10.625 28.308 10.629 18.68 0 33.551-13.825 37.883-35.215l71.012-350.64c2.848-14.071.457-26.669-6.734-35.462zm0 0"></path>
    <path d="M209.715 279.438a14.956 14.956 0 0 1 3.633-6.688l107.996-114.754L120.94 260.38l45.504 130.137c2.594 7.414 6.453 13.726 11.227 18.668l32.035-129.75zm-4.113 141.792c10.816-.09 21.445-4.652 30.757-13.226l33.293-30.656-44.39-35.743zm0 0"></path>
  </symbol>
  <symbol xmlns="http://www.w3.org/2000/svg" viewBox="0 0 24 24" id="thumb-like">
    <path d="M19.396 20.708c-.81-.062-.733-.812.031-.953 1.269-.234 1.827-.914 1.827-1.543 0-.529-.396-1.022-1.098-1.181-.837-.189-.664-.757.031-.812 1.132-.09 1.688-.764 1.688-1.41 0-.565-.425-1.108-1.261-1.22-.857-.115-.578-.734.031-.922.521-.16 1.354-.5 1.354-1.51 0-.672-.5-1.562-2.271-1.49-1.228.05-3.667-.198-4.979-.885C15.656 5.125 15.438 0 13.062 0c-1.594 0-1.896 1.807-2.375 3.469C8.969 9.438 5.531 10.531 2 11.072V21c6.688 0 8.5 3 13.505 3 3.199 0 4.852-1.735 4.852-2.666-.001-.334-.273-.572-.961-.626z"></path>
  </symbol>
  <symbol xmlns="http://www.w3.org/2000/svg" viewBox="0 0 512.008 512.008" id="transfer">
    <path d="M480.004 352.004H54.628l68.688-68.688-22.624-22.624-96 96c-6.256 6.256-6.256 16.368 0 22.624l96 96 22.624-22.624-68.688-68.688h425.376v-32zm27.312-219.312l-96-96-22.624 22.624 68.688 68.688H32.004v32H457.38l-68.688 68.688 22.624 22.624 96-96c6.256-6.256 6.256-16.368 0-22.624z"></path>
  </symbol>
  <symbol xmlns="http://www.w3.org/2000/svg" viewBox="0 0 512 512" id="twitter">
    <path d="M512 97.248c-19.04 8.352-39.328 13.888-60.48 16.576 21.76-12.992 38.368-33.408 46.176-58.016-20.288 12.096-42.688 20.64-66.56 25.408C411.872 60.704 384.416 48 354.464 48c-58.112 0-104.896 47.168-104.896 104.992 0 8.32.704 16.32 2.432 23.936-87.264-4.256-164.48-46.08-216.352-109.792-9.056 15.712-14.368 33.696-14.368 53.056 0 36.352 18.72 68.576 46.624 87.232-16.864-.32-33.408-5.216-47.424-12.928v1.152c0 51.008 36.384 93.376 84.096 103.136-8.544 2.336-17.856 3.456-27.52 3.456-6.72 0-13.504-.384-19.872-1.792 13.6 41.568 52.192 72.128 98.08 73.12-35.712 27.936-81.056 44.768-130.144 44.768-8.608 0-16.864-.384-25.12-1.44C46.496 446.88 101.6 464 161.024 464c193.152 0 298.752-160 298.752-298.688 0-4.64-.16-9.12-.384-13.568 20.832-14.784 38.336-33.248 52.608-54.496z"></path>
  </symbol>
  <symbol xmlns="http://www.w3.org/2000/svg" viewBox="0 0 32 32" id="viber">
    <path d="M15.7 4c-1.9 0-6.6.2-9.1 2.6C4.8 8.3 4.1 10.9 4 14c-.2 4.9.9 8 2.7 9.6.4.3 1.4 1.1 3.3 1.7v2.5s0 1 .6 1.2c.1 0 .2.1.3.1.6 0 1.1-.7 1.8-1.4.6-.7 1.1-1.2 1.4-1.7h2.2c1.9 0 6.6-.2 9.1-2.6 1.8-1.8 2.5-4.4 2.5-7.7.1-.5.1-1.1.1-1.7-.1-3.7-1.2-6.2-2.7-7.6-.6-.5-3.2-2.4-8.8-2.4h-.8zm-.2 1.9h.9c5.3 0 7.3 1.7 7.5 1.9 1.2 1 1.9 3.2 2 6.1v.4c.1.6.1 1.1.1 1.4-.1 3-.7 5-1.9 6.3-2.1 1.9-6.5 2-7.7 2h-1.9l-1.6 1.8-1 1.1-.2.3c-.2.2-.5.6-.7.7v-4.5c-2-.5-2.8-1.2-3-1.4-1.4-1.2-2.2-4.1-2-8v-1c.2-2.4.8-4 1.8-5.1 2.1-1.9 6.5-2 7.7-2zm-.1 2.2c-.5 0-.5.7 0 .7 3.7 0 6.9 2.5 6.9 7.2 0 .5.7.5.7 0 0-5.1-3.4-8-7.6-7.9zm-3.963.925a.875.875 0 0 0-.636.174c-1 .5-2.001 1.502-1.701 2.602 0 0 .2.899 1.3 2.799.6.9 1.1 1.7 1.6 2.3.5.7 1.3 1.5 2.1 2.1 1.6 1.3 4.1 2.6 5.2 2.9 1 .3 2.1-.7 2.6-1.7.2-.4.1-.9-.3-1.2-.6-.6-1.6-1.3-2.3-1.7-.5-.3-1.1-.1-1.3.2l-.5.6c-.2.3-.7.3-.7.3-3.3-.9-4.2-4.3-4.2-4.3s0-.4.3-.7l.6-.5c.3-.2.5-.8.2-1.3-.2-.3-.5-.9-.8-1.2-.3-.4-.9-1.1-.9-1.1a.962.962 0 0 0-.563-.275zM16.1 10.1c-.5-.1-.6.7-.1.7 2.8.2 4.4 2.1 4.3 4.5-.1.5.7.5.7 0 .1-2.8-1.7-5.1-4.9-5.2zm.3 1.9c-.5-.1-.5.7 0 .7 1.2 0 1.8.7 1.8 1.9.1.5.8.5.8 0-.1-1.6-1-2.6-2.6-2.6z"></path>
  </symbol>
  <symbol xmlns="http://www.w3.org/2000/svg" viewBox="0 0 512 512" id="visa-icon">
    <path d="M401.067 213.333L384 256h21.333v-42.667z"></path>
    <path d="M437.333 85.333H74.667C34.133 85.333 0 119.467 0 160v192c0 40.533 34.133 74.667 74.667 74.667h362.667C477.867 426.667 512 392.533 512 352V160c0-40.533-34.133-74.667-74.667-74.667zM160 320h-21.333c-6.4 0-10.667-4.267-10.667-10.667v-96H96c-6.4 0-10.667-4.267-10.667-10.667C85.333 196.267 89.6 192 96 192h42.667c6.4 0 10.667 4.267 10.667 10.667v96h4.267L192 198.4c2.133-4.267 8.533-8.533 14.933-6.4 4.267 2.133 8.533 8.533 6.4 14.933L170.667 313.6c-2.134 4.267-6.4 6.4-10.667 6.4zm64 0h-2.133c-6.4-2.133-8.533-6.4-8.533-12.8l21.333-106.667c2.133-6.4 6.4-8.533 12.8-8.533 6.4 2.133 8.533 6.4 8.533 12.8l-21.333 106.667c0 4.266-6.4 8.533-10.667 8.533zm83.2-74.667c27.733 17.067 29.867 32 27.733 42.667-2.133 10.667-10.667 21.333-21.333 25.6-6.4 4.267-14.933 6.4-23.467 6.4s-17.067-2.133-27.733-4.267c-6.4-2.133-8.533-8.533-6.4-12.8 2.133-6.4 8.533-8.533 12.8-6.4 14.933 4.267 25.6 6.4 34.133 0 6.4-4.267 8.533-10.667 10.667-12.8 2.133-4.267-4.267-12.8-17.067-19.2-8.533-4.266-23.466-14.933-27.733-29.866-2.133-8.533 0-17.067 4.267-23.467 14.933-25.6 57.6-14.933 57.6-14.933 8.533 0 12.8 4.267 10.667 10.667-2.133 6.4-6.4 8.533-12.8 8.533-8.533-2.133-29.867-4.267-36.267 4.267-2.133 4.267-2.133 6.4-2.133 8.533 2.133 6.4 12.799 12.8 17.066 17.066zm119.467 64c0 6.4-4.267 10.667-10.667 10.667-6.4 0-10.667-4.267-10.667-10.667v-32h-29.867l-12.8 36.267c-2.133 4.267-6.4 6.4-10.667 6.4h-4.267c-6.4-2.133-8.533-8.533-6.4-14.933L384 198.4c2.133-4.267 6.4-6.4 10.667-6.4H416c6.4 0 10.667 4.267 10.667 10.667v106.666z"></path>
  </symbol>
  <symbol xmlns="http://www.w3.org/2000/svg" viewBox="0 0 512.001 512.001" id="customer">
    <path d="M271.029 0c-33.091 0-61 27.909-61 61s27.909 61 61 61 60-27.909 60-61-26.909-61-60-61zm66.592 122c-16.485 18.279-40.096 30-66.592 30-26.496 0-51.107-11.721-67.592-30-14.392 15.959-23.408 36.866-23.408 60v15c0 8.291 6.709 15 15 15h151c8.291 0 15-6.709 15-15v-15c0-23.134-9.016-44.041-23.408-60zM144.946 460.404L68.505 307.149c-7.381-14.799-25.345-20.834-40.162-13.493l-19.979 9.897c-7.439 3.689-10.466 12.73-6.753 20.156l90 180c3.701 7.423 12.704 10.377 20.083 6.738l19.722-9.771c14.875-7.368 20.938-25.417 13.53-40.272zM499.73 247.7c-12.301-9-29.401-7.2-39.6 3.9l-82 100.8c-5.7 6-16.5 9.6-22.2 9.6h-69.901c-8.401 0-15-6.599-15-15s6.599-15 15-15h60c16.5 0 30-13.5 30-30s-13.5-30-30-30h-78.6c-7.476 0-11.204-4.741-17.1-9.901-23.209-20.885-57.949-30.947-93.119-22.795-19.528 4.526-32.697 12.415-46.053 22.993l-.445-.361-21.696 19.094L174.28 452h171.749c28.2 0 55.201-13.5 72.001-36l87.999-126c9.9-13.201 7.2-32.399-6.299-42.3z"></path>
  </symbol>
  <symbol viewBox="0 0 512 512" xmlns="http://www.w3.org/2000/svg" id="add-file-icon">
    <path d="M400 136.022V119.5a24.028 24.028 0 0 0-24-24H208V128h168a39.788 39.788 0 0 1 24 8.022z"></path>
    <path d="M384 256a112.453 112.453 0 0 1 16 1.148V168a24.028 24.028 0 0 0-24-24H200a8 8 0 0 1-8-8V72a24.027 24.027 0 0 0-24-24H56a24.027 24.027 0 0 0-24 24v320a24.027 24.027 0 0 0 24 24h226.821A111.976 111.976 0 0 1 384 256z"></path>
    <path d="M384 272a96 96 0 1 0 96 96 96.108 96.108 0 0 0-96-96zm56 104h-48v48a8 8 0 0 1-16 0v-48h-48a8 8 0 0 1 0-16h48v-48a8 8 0 0 1 16 0v48h48a8 8 0 0 1 0 16z"></path>
  </symbol>
  <symbol xmlns="http://www.w3.org/2000/svg" viewBox="0 0 512 512" id="agreement">
    <path d="M433.6 119.384a10.581 10.581 0 0 1-5.333 2.453c-42.88 6.528-73.792-3.648-98.581-11.84-15.253-5.013-28.395-9.365-41.685-9.365-22.421 0-39.787 11.413-56.576 22.443-3.904 2.56-7.701 5.056-11.456 7.339l-55.595 55.595a24.919 24.919 0 0 0-4.672 28.821c4.245 8.512 12.8 13.803 22.315 13.803h8.533c5.803 0 11.243-1.92 15.723-5.547 4.075-3.328 8.768-7.232 13.781-11.435 27.328-22.848 49.408-40.789 64.192-46.336a10.437 10.437 0 0 1 3.755-.683c2.517 0 5.013.896 6.976 2.603l154.176 133.611L512 275.928V70.488l-78.4 48.896zM96.491 292.632a20.818 20.818 0 0 0-17.344 9.28l-11.648 17.472A20.809 20.809 0 0 0 64 330.947v4.843c0 11.52 9.323 20.843 20.843 20.843a20.818 20.818 0 0 0 17.344-9.28l11.648-17.472a20.809 20.809 0 0 0 3.499-11.563v-4.843c-.001-11.52-9.323-20.843-20.843-20.843zm42.666 21.333h-.725a20.864 20.864 0 0 0-16.683 8.341l-21.568 28.779A20.79 20.79 0 0 0 96 363.587v4.203c0 11.52 9.323 20.843 20.843 20.843h.725a20.864 20.864 0 0 0 16.683-8.341l21.568-28.779A20.788 20.788 0 0 0 160 339.012v-4.203c0-11.521-9.323-20.844-20.843-20.844zm42.667 21.334h-.725a20.864 20.864 0 0 0-16.683 8.341l-21.568 28.779a20.788 20.788 0 0 0-4.181 12.501v4.203c0 11.52 9.323 20.843 20.843 20.843h.725a20.864 20.864 0 0 0 16.683-8.341l21.568-28.779a20.788 20.788 0 0 0 4.181-12.501v-4.203c0-11.521-9.323-20.843-20.843-20.843zm42.667 21.333h-.725a20.864 20.864 0 0 0-16.683 8.341l-21.568 28.779a20.788 20.788 0 0 0-4.181 12.501v4.203c0 11.52 9.323 20.843 20.843 20.843h.725a20.864 20.864 0 0 0 16.683-8.341l21.568-28.779c2.709-3.605 4.16-8 4.16-12.501v-4.203h.021c-.001-11.52-9.323-20.843-20.843-20.843zm54.677 63.659l-19.307-16.448c-.64 1.003-.939 2.197-1.643 3.157l-13.717 18.283 14.357 13.312c4.565 4.544 11.307 4.288 15.339.256 5.312-5.312 7.424-15.488 4.971-18.56z"></path>
    <path d="M441.579 323.928l-155.35-136.021c-13.675 7.637-35.776 26.112-52.48 40.085-5.077 4.267-9.835 8.235-13.973 11.605-8.341 6.805-18.432 10.368-29.205 10.368h-8.533c-17.664 0-33.515-9.813-41.408-25.6-8.96-17.835-5.483-39.296 8.661-53.44l59.563-58.731c3.051-1.856 6.144-3.883 9.28-5.931-33.451-6.827-71.467-7.296-113.941-.619a74.687 74.687 0 0 1-59.755-16.32L0 70.061v205.845l55.467 23.061 5.931-8.896c7.808-11.733 20.928-18.773 35.093-18.773 15.893 0 29.589 8.939 36.779 21.952 1.707-.235 3.392-.619 5.141-.619 16.405 0 30.251 8.939 37.483 21.952 1.749-.235 3.435-.619 5.184-.619 16.405 0 30.251 8.939 37.483 21.952 1.728-.213 3.413-.619 5.184-.619h.747c23.253 0 42.176 18.923 42.176 42.176v4.16l26.773 22.763c.021.043.064.064.107.107l10.197 8.661c5.931 4.736 13.696 7.467 21.611 7.467 8.811 0 15.979-7.168 15.979-15.979 0-4.757-2.112-9.216-5.76-12.267l-97.088-80.896c-4.523-3.776-5.141-10.496-1.365-15.019 3.776-4.501 10.496-5.141 15.04-1.344l119.936 99.947a18.407 18.407 0 0 0 11.733 4.224h3.136c10.133 0 18.347-8.235 18.347-18.347 0-5.333-2.24-10.325-6.208-13.824l-117.952-98.283a10.663 10.663 0 0 1-1.344-15.04c3.797-4.544 10.517-5.099 15.019-1.365l117.568 97.963c.192.149.384.32.555.469l1.749 1.451a18.492 18.492 0 0 0 11.883 4.309h2.859c10.219 0 18.56-8.341 18.56-18.56-.003-5.481-2.328-10.579-6.424-14.142z"></path>
  </symbol>
  <symbol xmlns="http://www.w3.org/2000/svg" viewBox="0 0 298.667 298.667" id="btn-close">
    <path d="M298.667 30.187L268.48 0 149.333 119.147 30.187 0 0 30.187l119.147 119.146L0 268.48l30.187 30.187L149.333 179.52 268.48 298.667l30.187-30.187L179.52 149.333z"></path>
  </symbol>
  <symbol xmlns="http://www.w3.org/2000/svg" viewBox="0 0 512 512" id="calculator">
    <path d="M384 0H128C99.84 0 76.8 23.04 76.8 51.2v409.6c0 28.16 23.04 51.2 51.2 51.2h256c28.16 0 51.2-23.04 51.2-51.2V51.2C435.2 23.04 412.16 0 384 0zM179.2 460.8H128v-51.2h51.2v51.2zm0-102.4H128v-51.2h51.2v51.2zm0-102.4H128v-51.2h51.2V256zm102.4 204.8h-51.2v-51.2h51.2v51.2zm0-102.4h-51.2v-51.2h51.2v51.2zm0-102.4h-51.2v-51.2h51.2V256zM384 460.8h-51.2V307.2H384v153.6zm0-204.8h-51.2v-51.2H384V256zm0-102.4H128V51.2h256v102.4z"></path>
  </symbol>
  <symbol xmlns="http://www.w3.org/2000/svg" viewBox="0 0 53.251 53.251" id="capitol-building">
    <path d="M12.61 21.022h28.03a1.169 1.169 0 0 0 0-2.335h-.06c-.528-6.41-5.371-11.588-11.619-12.637V4.38h-2.044V.292c0-.159-.131-.292-.292-.292s-.292.133-.292.292v4.087H24.29v1.67c-6.248 1.049-11.09 6.227-11.621 12.637h-.059a1.169 1.169 0 0 0 0 2.336zm33.87 29.31h-1.46V36.9h1.46a1.461 1.461 0 0 0 0-2.92H6.771c-.806 0-1.46.657-1.46 1.46 0 .81.654 1.46 1.46 1.46h1.46v13.432h-1.46c-.806 0-1.46.656-1.46 1.459 0 .811.654 1.46 1.46 1.46H46.48c.808 0 1.46-.649 1.46-1.46 0-.801-.652-1.459-1.46-1.459zm-5.548 0H38.48V36.9h2.452v13.432zM25.399 36.9h2.452v13.432h-2.452V36.9zm-4.087 13.432h-2.453V36.9h2.453v13.432zM31.94 36.9h2.452v13.432H31.94V36.9zm-19.622 0h2.452v13.432h-2.452V36.9zm-1.459-10.914h1.471c0 .022-.012.042-.012.058v6.302h2.92v-6.302c0-.021-.011-.042-.011-.058h1.387c0 .022-.011.042-.011.058v6.302h2.919v-6.302c0-.021-.011-.042-.011-.058h1.387c0 .022-.011.042-.011.058v6.302h2.92v-6.302c0-.021-.012-.042-.012-.058h1.387c0 .022-.012.042-.012.058v6.302h2.92v-6.302c0-.021-.012-.042-.012-.058h1.387c0 .022-.012.042-.012.058v6.302h2.92v-6.302c0-.021-.011-.042-.011-.058h1.387c0 .022-.012.042-.012.058v6.302h2.92v-6.302c0-.021-.012-.042-.012-.058h1.387c0 .022-.011.042-.011.058v6.302h2.92v-6.302c0-.021-.012-.042-.012-.058H42.4c.808 0 1.46-.651 1.46-1.46 0-.807-.652-1.46-1.46-1.46H10.868a1.46 1.46 0 0 0-1.46 1.46c0 .805.644 1.46 1.451 1.46z"></path>
  </symbol>
  <symbol xmlns="http://www.w3.org/2000/svg" viewBox="0 0 512 512" id="certificate">
    <path d="M448.004 93c5.523 0 10-4.477 10-10V30c0-16.542-13.458-30-30-30h-398c-16.542 0-30 13.458-30 30v452c0 16.542 13.458 30 30 30h398c16.542 0 30-13.458 30-30v-28c0-5.523-4.477-10-10-10s-10 4.477-10 10v28c0 5.514-4.486 10-10 10h-398c-5.514 0-10-4.486-10-10V30c0-5.514 4.486-10 10-10h398c5.514 0 10 4.486 10 10v53c0 5.523 4.477 10 10 10z"></path>
    <path d="M400.01 48H57.998c-5.523 0-10 4.477-10 10v209c0 5.523 4.477 10 10 10s10-4.477 10-10V68H390.01v16c0 5.523 4.478 10 10 10 5.523 0 10-4.477 10-10V58c0-5.523-4.477-10-10-10zM65.064 296.93a10.058 10.058 0 0 0-7.07-2.93c-2.63 0-5.21 1.07-7.07 2.93s-2.93 4.44-2.93 7.07 1.07 5.21 2.93 7.07c1.86 1.86 4.44 2.93 7.07 2.93 2.64 0 5.21-1.07 7.07-2.93 1.87-1.86 2.93-4.44 2.93-7.07s-1.06-5.21-2.93-7.07zM400.01 422c-5.523 0-10 4.477-10 10v12H67.998V342.5c0-5.523-4.477-10-10-10s-10 4.477-10 10V454c0 5.523 4.477 10 10 10H400.01c5.523 0 10-4.477 10-10v-22c0-5.523-4.477-10-10-10z"></path>
    <path d="M309.908 353.336c-3.905-3.906-10.236-3.906-14.142-.001L276.002 373.1l-12.285-12.286c-7.757-7.756-20.376-7.756-28.133 0l-7.994 7.994c-3.905 3.905-3.905 10.237 0 14.143 3.905 3.905 10.237 3.905 14.143 0l7.918-7.918 12.285 12.286c3.878 3.878 8.972 5.817 14.066 5.817s10.188-1.939 14.066-5.817l19.84-19.84c3.905-3.905 3.905-10.237 0-14.143z"></path>
    <path d="M507.4 209.782a29.155 29.155 0 0 0 3.609-23.231 29.152 29.152 0 0 0-14.741-18.313 9.115 9.115 0 0 1-4.907-8.499 29.157 29.157 0 0 0-8.489-21.923 29.133 29.133 0 0 0-21.923-8.489 9.087 9.087 0 0 1-8.499-4.907 29.155 29.155 0 0 0-18.313-14.741 29.146 29.146 0 0 0-23.23 3.609 9.113 9.113 0 0 1-9.813 0 29.148 29.148 0 0 0-23.23-3.609 29.155 29.155 0 0 0-18.313 14.741 9.132 9.132 0 0 1-8.499 4.907 29.142 29.142 0 0 0-21.922 8.489 29.154 29.154 0 0 0-8.49 21.922 9.117 9.117 0 0 1-4.907 8.5 29.153 29.153 0 0 0-14.741 18.313 29.05 29.05 0 0 0-.711 11.449h-174.5c-5.523 0-10 4.477-10 10s4.477 10 10 10H305.39a9.006 9.006 0 0 1-.79 1.596 29.155 29.155 0 0 0-3.609 23.231c.29 1.083.647 2.141 1.057 3.173h-176.27c-5.523 0-10 4.477-10 10s4.477 10 10 10h194.265a9.035 9.035 0 0 1 .594 3.639 29.154 29.154 0 0 0 8.49 21.923 29.127 29.127 0 0 0 21.922 8.489c3.533-.173 6.873 1.761 8.499 4.907a29.023 29.023 0 0 0 4.451 6.344v93.393a10 10 0 0 0 17.053 7.089l24.947-24.817 24.947 24.817a9.997 9.997 0 0 0 10.892 2.144 10 10 0 0 0 6.161-9.234v-93.393a28.999 28.999 0 0 0 4.451-6.344 9.126 9.126 0 0 1 8.499-4.907 29.112 29.112 0 0 0 21.922-8.489 29.154 29.154 0 0 0 8.49-21.923 9.116 9.116 0 0 1 4.907-8.499 29.153 29.153 0 0 0 14.741-18.313 29.157 29.157 0 0 0-3.609-23.232 9.11 9.11 0 0 1 0-9.812zm-79.401 170.86l-14.948-14.87c-3.901-3.881-10.204-3.881-14.105 0l-14.947 14.87V320.65a29.166 29.166 0 0 0 17.094-4.56 9.113 9.113 0 0 1 9.813 0 29.147 29.147 0 0 0 15.72 4.597c.458 0 .915-.023 1.373-.045v60zm63.691-142.991a8.991 8.991 0 0 1-4.607 5.723c-10.064 5.203-16.228 15.877-15.701 27.195a8.991 8.991 0 0 1-2.653 6.852 8.998 8.998 0 0 1-6.851 2.653c-11.324-.524-21.992 5.636-27.195 15.701a8.987 8.987 0 0 1-5.724 4.607c-2.5.669-5.08.27-7.259-1.128a29.075 29.075 0 0 0-15.702-4.586 29.082 29.082 0 0 0-15.701 4.586 8.998 8.998 0 0 1-7.26 1.128 8.993 8.993 0 0 1-5.724-4.607c-5.203-10.064-15.869-16.23-27.195-15.701a9.003 9.003 0 0 1-6.851-2.653 8.988 8.988 0 0 1-2.653-6.853c.371-7.988-2.602-15.646-7.915-21.295a9.882 9.882 0 0 0-.483-.499 28.922 28.922 0 0 0-7.303-5.4c-2.3-1.189-3.936-3.221-4.606-5.723s-.27-5.081 1.128-7.26c6.115-9.538 6.115-21.864 0-31.402a8.996 8.996 0 0 1-1.128-7.261 8.991 8.991 0 0 1 4.607-5.723c10.064-5.203 16.227-15.877 15.701-27.195a8.991 8.991 0 0 1 2.653-6.852 8.998 8.998 0 0 1 6.851-2.653c11.325.525 21.993-5.636 27.195-15.701a8.987 8.987 0 0 1 5.724-4.607 8.991 8.991 0 0 1 7.259 1.128c9.539 6.116 21.866 6.116 31.402 0a8.99 8.99 0 0 1 7.26-1.128 8.993 8.993 0 0 1 5.724 4.607c5.203 10.064 15.876 16.229 27.195 15.701a8.993 8.993 0 0 1 6.851 2.653 8.987 8.987 0 0 1 2.653 6.852c-.526 11.317 5.636 21.992 15.702 27.195a8.987 8.987 0 0 1 4.606 5.723 8.99 8.99 0 0 1-1.128 7.26c-6.115 9.538-6.115 21.864 0 31.402a8.988 8.988 0 0 1 1.128 7.261z"></path>
    <path d="M453.556 187.486c-3.905-3.905-10.237-3.905-14.142 0l-33.191 33.192-13.213-13.213c-3.905-3.905-10.237-3.905-14.143 0-3.905 3.905-3.905 10.237 0 14.143l20.284 20.284c1.953 1.953 4.512 2.929 7.071 2.929s5.119-.976 7.071-2.929l40.263-40.263c3.905-3.905 3.905-10.237 0-14.143zM122.074 120.93a10.076 10.076 0 0 0-7.07-2.93c-2.63 0-5.21 1.07-7.07 2.93-1.86 1.86-2.93 4.44-2.93 7.07s1.07 5.21 2.93 7.07c1.86 1.86 4.44 2.93 7.07 2.93s5.21-1.07 7.07-2.93c1.86-1.86 2.93-4.44 2.93-7.07s-1.07-5.21-2.93-7.07zm78.923-2.93H152.33c-5.523 0-10 4.477-10 10s4.477 10 10 10h48.667c5.523 0 10-4.477 10-10s-4.477-10-10-10zm101.841 176H188.516c-5.523 0-10 4.477-10 10s4.477 10 10 10h114.321c5.523 0 10-4.477 10-10s-4.476-10-9.999-10z"></path>
  </symbol>
  <symbol xmlns="http://www.w3.org/2000/svg" viewBox="0 0 24 24" id="chat-icon">
    <path d="M2.001 9.352c0 1.873.849 2.943 1.683 3.943.031 1 .085 1.668-.333 3.183 1.748-.558 2.038-.778 3.008-1.374 1 .244 1.474.381 2.611.491a6.007 6.007 0 0 0 .055 2.023 14.707 14.707 0 0 1-2.33-.374c-1.397.857-4.481 1.725-6.649 2.115.811-1.595 1.708-3.785 1.661-5.312A7.368 7.368 0 0 1 .002 9.352C.001 4.526 4.72 1 10.001 1c5.237 0 9.977 3.484 9.998 8.318a9.655 9.655 0 0 0-2.021-.314C17.749 5.664 14.265 3 10.001 3c-4.411 0-8 2.85-8 6.352zm20.883 10.169c-.029 1.001.558 2.435 1.088 3.479-1.419-.258-3.438-.824-4.352-1.385a9.356 9.356 0 0 1-2.213.274c-3.865 0-6.498-2.643-6.498-5.442 0-3.174 3.11-5.467 6.546-5.467 3.457 0 6.546 2.309 6.546 5.467a4.82 4.82 0 0 1-1.117 3.074zM15.321 16.5a.82.82 0 1 0-1.641.001.82.82 0 0 0 1.641-.001zm3 0a.82.82 0 1 0-1.641.001.82.82 0 0 0 1.641-.001zm3 0a.82.82 0 1 0-1.641.001.82.82 0 0 0 1.641-.001z"></path>
  </symbol>
  <symbol xmlns="http://www.w3.org/2000/svg" viewBox="0 0 50 50" id="coins-icon">
    <path d="M50 27.242c0 1.82-5.336 4.363-14.023 4.363a37.61 37.61 0 0 1-6.04-.468c.032-.172.067-.34.067-.516v-4.969c1.89.29 3.89.442 5.973.442 5.437 0 11.109-1.098 14.023-3.172zm-21.996 3.38c0 1.812-5.317 4.347-13.973 4.347S.062 32.437.062 30.62v-4.297c2.907 2.067 8.551 3.156 13.97 3.156 5.417 0 11.062-1.09 13.972-3.156zM.062 33.808c2.91 2.066 8.555 3.16 13.97 3.16 5.417 0 11.062-1.094 13.972-3.16v4.296c0 1.817-5.317 4.348-13.973 4.348-8.652 0-13.969-2.531-13.969-4.348zM50 12.219c0 1.82-5.336 4.363-14.023 4.363-8.688 0-14.024-2.543-14.024-4.363v-4.32c2.914 2.074 8.582 3.171 14.024 3.171 5.437 0 11.109-1.097 14.023-3.172zM35.977.339C44.664.34 50 2.884 50 4.704c0 1.824-5.336 4.367-14.023 4.367-8.688 0-14.024-2.543-14.024-4.367 0-1.82 5.332-4.363 14.024-4.363zM21.953 15.407c2.914 2.078 8.582 3.176 14.024 3.176 5.437 0 11.109-1.098 14.023-3.176v4.324c0 1.82-5.336 4.364-14.023 4.364a38.31 38.31 0 0 1-6.036-.473c.028-.16.063-.316.063-.484 0-2.68-3.488-4.551-8.05-5.54zm-7.922 3.383c8.656 0 13.973 2.531 13.973 4.348 0 1.812-5.317 4.343-13.973 4.343S.062 24.95.062 23.137c0-1.817 5.317-4.348 13.97-4.348zm0 31.148C5.38 49.938.062 47.407.062 45.59v-4.297c2.907 2.066 8.551 3.16 13.97 3.16 5.417 0 11.062-1.094 13.972-3.16v4.297c0 1.816-5.317 4.347-13.973 4.347zm21.946-10.82c-2.11 0-4.137-.16-6.043-.469.035-.18.07-.355.07-.543v-4.937c1.883.285 3.887.437 5.973.437 5.437 0 11.109-1.097 14.023-3.171v4.32c0 1.82-5.336 4.363-14.023 4.363z"></path>
  </symbol>
  <symbol xmlns="http://www.w3.org/2000/svg" viewBox="0 0 50 50" id="discoun-icon">
    <path d="M19.828 2.064A2.404 2.404 0 0 0 18.1 3l-2.6 3.5-4.5.2c-1.1 0-2.1.9-2.2 2L8.1 13l-3.8 2.2c-1 .6-1.4 1.7-1.1 2.8l1.4 4.2L2.3 26c-.6.9-.4 2.2.4 3l3.1 3-.4 4.4c-.1 1.1.6 2.2 1.7 2.5l4.2 1.2 1.7 4.1c.4 1 1.6 1.6 2.7 1.4l4.3-.9 3.4 2.8c.4.3 1 .5 1.5.5s1.1-.2 1.5-.5l3.4-2.8 4.3.9c1.1.2 2.2-.4 2.7-1.4l1.7-4.1 4.2-1.2c1.1-.3 1.8-1.3 1.7-2.5l-.2-4.4 3.2-3.1c.8-.8 1-2 .4-2.9l-2.4-3.7 1.4-4.2c.4-1.1-.1-2.2-1.1-2.8L41.9 13l-.7-4.4c-.2-1.1-1.1-1.9-2.2-2l-4.4-.2L31.9 3c-.7-.9-1.9-1.2-2.9-.7l-4 1.9-4-1.9a2.265 2.265 0 0 0-1.172-.236zM19.5 14c1.6 0 2.8.9 3.3 2.4.2.6.2.9.2 3.1s-.1 2.6-.2 3.1c-.5 1.4-1.7 2.4-3.3 2.4-1.6 0-2.8-.9-3.3-2.4-.2-.6-.2-.9-.2-3.1s.1-2.6.2-3.1c.5-1.4 1.7-2.4 3.3-2.4zm11 0h1.4c.2 0 .2.2.2.3l-12 21.4c-.1.2-.2.3-.4.3h-1.4c-.2 0-.3-.2-.2-.3L30 14.3c.1-.2.2-.3.5-.3zm-11 2.1c-.7 0-1.2.4-1.4 1-.1.3-.1.6-.1 2.5s.1 2.1.1 2.4c.2.7.7 1 1.4 1s1.2-.4 1.4-1c.1-.3.1-.6.1-2.4 0-1.9-.1-2.2-.1-2.5-.2-.7-.7-1-1.4-1zm11 8.9c1.6 0 2.8.9 3.3 2.4.2.6.2.9.2 3.1s-.1 2.6-.2 3.1c-.5 1.4-1.7 2.4-3.3 2.4-1.6 0-2.8-.9-3.3-2.4-.2-.6-.2-.9-.2-3.1s.1-2.6.2-3.1c.5-1.4 1.7-2.4 3.3-2.4zm0 2c-.7 0-1.2.4-1.4 1-.1.3-.1.6-.1 2.5s.1 2.1.1 2.4c.2.7.7 1 1.4 1s1.2-.4 1.4-1c.1-.3.1-.6.1-2.4 0-1.9-.1-2.2-.1-2.5-.2-.6-.7-1-1.4-1z"></path>
  </symbol>
  <symbol xmlns="http://www.w3.org/2000/svg" viewBox="0 0 512.003 512.003" id="discount-icon">
    <path d="M477.958 262.633a15.004 15.004 0 0 1 0-13.263l19.096-39.065c10.632-21.751 2.208-47.676-19.178-59.023l-38.41-20.38a15.005 15.005 0 0 1-7.796-10.729l-7.512-42.829c-4.183-23.846-26.241-39.87-50.208-36.479l-43.053 6.09a15.004 15.004 0 0 1-12.613-4.099l-31.251-30.232c-17.401-16.834-44.661-16.835-62.061 0L193.72 42.859a15.01 15.01 0 0 1-12.613 4.099l-43.053-6.09c-23.975-3.393-46.025 12.633-50.208 36.479l-7.512 42.827a15.008 15.008 0 0 1-7.795 10.73l-38.41 20.38c-21.386 11.346-29.81 37.273-19.178 59.024l19.095 39.064a15.004 15.004 0 0 1 0 13.263L14.95 301.699c-10.632 21.751-2.208 47.676 19.178 59.023l38.41 20.38a15.005 15.005 0 0 1 7.796 10.729l7.512 42.829c3.808 21.708 22.422 36.932 43.815 36.93 2.107 0 4.245-.148 6.394-.452l43.053-6.09a15 15 0 0 1 12.613 4.099l31.251 30.232c8.702 8.418 19.864 12.626 31.03 12.625 11.163-.001 22.332-4.209 31.03-12.625l31.252-30.232c3.372-3.261 7.968-4.751 12.613-4.099l43.053 6.09c23.978 3.392 46.025-12.633 50.208-36.479l7.513-42.827a15.008 15.008 0 0 1 7.795-10.73l38.41-20.38c21.386-11.346 29.81-37.273 19.178-59.024l-19.096-39.065zM196.941 123.116c29.852 0 54.139 24.287 54.139 54.139s-24.287 54.139-54.139 54.139-54.139-24.287-54.139-54.139 24.287-54.139 54.139-54.139zm-27.944 240.77c-2.883 2.883-6.662 4.325-10.44 4.325s-7.558-1.441-10.44-4.325c-5.766-5.766-5.766-15.115 0-20.881l194.889-194.889c5.765-5.766 15.115-5.766 20.881 0s5.766 15.115 0 20.881l-194.89 194.889zm146.064 25.002c-29.852 0-54.139-24.287-54.139-54.139s24.287-54.139 54.139-54.139c29.852 0 54.139 24.287 54.139 54.139s-24.287 54.139-54.139 54.139z"></path>
    <path d="M315.061 310.141c-13.569 0-24.609 11.039-24.609 24.608s11.039 24.608 24.609 24.608c13.569 0 24.608-11.039 24.608-24.608s-11.039-24.608-24.608-24.608zm-118.12-157.495c-13.569 0-24.608 11.039-24.608 24.608s11.039 24.609 24.608 24.609 24.609-11.039 24.609-24.609c-.001-13.568-11.04-24.608-24.609-24.608z"></path>
  </symbol>
  <symbol xmlns="http://www.w3.org/2000/svg" viewBox="0 0 256 256" id="down-arrow">
    <path d="M225.813 48.907L128 146.72 30.187 48.907 0 79.093l128 128 128-128z"></path>
  </symbol>
  <symbol xmlns="http://www.w3.org/2000/svg" viewBox="0 0 512.006 512.006" id="eye-icon">
    <path d="M507.082 244.168l-48.763-48.763C342.838 80.53 169.122 80.535 54.287 195.371L4.991 244.106a16.812 16.812 0 0 0-.073 23.836l48.769 48.769c57.67 57.367 129.972 86.048 202.302 86.048 72.324 0 144.671-28.698 202.358-86.088l48.735-48.735a16.807 16.807 0 0 0 0-23.768zm-72.476 48.707c-101.812 101.302-255.389 101.291-357.184.034l-36.781-36.787 37.341-36.916c101.38-101.38 254.706-101.375 356.596 0l36.848 36.848-36.82 36.821z"></path>
    <path d="M256 155.789c-55.289 0-100.271 44.982-100.271 100.271S200.711 356.331 256 356.331s100.271-44.982 100.271-100.271S311.289 155.789 256 155.789zm0 166.932c-36.759 0-66.661-29.902-66.661-66.661S219.241 189.4 256 189.4s66.655 29.908 66.655 66.661-29.896 66.66-66.655 66.66z"></path>
    <path d="M256 210.126v33.611c6.913 0 12.324 5.417 12.324 12.324s-5.411 12.324-12.324 12.324-12.324-5.417-12.324-12.324h-33.611c0 25.326 20.609 45.934 45.934 45.934 25.331 0 45.934-20.603 45.934-45.934S281.326 210.126 256 210.126z"></path>
  </symbol>
  <symbol viewBox="0 0 512 512" xmlns="http://www.w3.org/2000/svg" id="facebook">
    <path d="M297.277 508.668zm5.121-.875c-1.02.187-2.039.36-3.058.535 1.02-.176 2.039-.348 3.058-.535zm-17.261 2.547zm4.918-.602zm19.312-3.328zm17.297-4.297c-.726.207-1.453.403-2.18.606.727-.203 1.454-.399 2.18-.606zm-5.23 1.43c-.79.207-1.582.418-2.375.617.793-.2 1.586-.406 2.375-.617zm-6.844 1.711c-.836.195-1.68.379-2.524.566.844-.187 1.688-.37 2.524-.566zm-37.063 5.836zM512 256C512 114.637 397.363 0 256 0S0 114.637 0 256s114.637 256 256 256c1.504 0 3-.031 4.5-.059V312.656h-55V248.56h55v-47.17c0-54.703 33.395-84.477 82.191-84.477 23.368 0 43.454 1.742 49.309 2.52v57.171h-33.648c-26.547 0-31.688 12.618-31.688 31.13v40.824h63.477l-8.274 64.097h-55.203V502.11C433.668 471.434 512 372.852 512 256zM272.914 511.43zm-8.16.406zm0 0"></path>
  </symbol>
  <symbol xmlns="http://www.w3.org/2000/svg" viewBox="0 0 50 50" id="favorite-file-icon">
    <path d="M4 0v48h21.766l1.964-7.266-6.992-5.683-4.054-3.297 5.218-.25 9-.438 3.23-8.382L36 17.84l1.863 4.844L40 28.219V14.586L25.414 0zm22 3.414L36.586 14H26zm10 19.988L32.3 33l-10.3.5 8 6.5-2.7 10 8.7-5.598L44.7 50 42 40l8-6.5-10.3-.5z"></path>
  </symbol>
  <symbol xmlns="http://www.w3.org/2000/svg" viewBox="0 0 24 24" id="globe">
    <path d="M12 0C5.373 0 0 5.373 0 12s5.373 12 12 12 12-5.373 12-12S18.627 0 12 0zm9.567 9.098a.602.602 0 0 0-.206-.138c-.258-.101-1.35.603-1.515.256-.108-.231-.327.148-.578.008-.121-.067-.459-.52-.611-.465-.312.112.479.974.694 1.087.203-.154.86-.469 1.002-.039.271.812-.745 1.702-1.264 2.171-.775.702-.63-.454-1.159-.86-.277-.213-.274-.667-.555-.824-.125-.071-.7-.732-.694-.821l-.017.167c-.095.072-.297-.27-.319-.325 0 .298.485.772.646 1.011.273.409.42 1.005.756 1.339.179.18.866.923 1.045.908l.921-.437c.649.154-1.531 3.237-1.738 3.619-.171.321.139 1.112.114 1.49-.029.437-.374.579-.7.817-.35.255-.268.752-.562.934-.521.321-.897 1.366-1.639 1.361-.219-.001-1.151.364-1.273.007-.095-.258-.223-.455-.356-.71-.131-.25-.015-.51-.175-.731-.11-.154-.479-.502-.513-.684-.002-.157.118-.632.283-.715.231-.118.044-.462.016-.663-.048-.357-.27-.652-.535-.859-.393-.302-.189-.542-.098-.974 0-.206-.126-.476-.402-.396-.57.166-.396-.445-.812-.417-.299.021-.543.211-.821.295-.349.104-.707-.083-1.053-.126-1.421-.179-1.885-1.804-1.514-2.976.037-.192-.115-.547-.048-.696.159-.352.485-.752.768-1.021.16-.152.365-.113.553-.231.29-.182.294-.558.578-.789.404-.328.956-.321 1.482-.392.281-.037 1.35-.268 1.518-.06 0 .039.193.611-.019.578.438.023 1.061.756 1.476.585.213-.089.135-.744.573-.427.265.19 1.45.275 1.696.07.152-.125.236-.939.053-1.031.117.116-.618.125-.686.099-.122-.044-.235.115-.43.025.117.055-.651-.358-.22-.674-.181.132-.349-.037-.544.109-.135.109.062.181-.13.277-.305.155-.535-.53-.649-.607-.118-.077-1.024-.713-.777-.298l.797.793c-.04.026-.209-.289-.209-.059.053-.136.02.585-.105.35-.056-.09.091-.14.006-.271 0-.085-.23-.169-.275-.228-.126-.157-.462-.502-.644-.585-.05-.024-.771.088-.832.111a1.815 1.815 0 0 0-.181.314 2.01 2.01 0 0 0-.423.216l-.159.356c-.068.061-.772.294-.776.303.03-.076-.492-.172-.457-.324.038-.167.215-.687.169-.877-.048-.199 1.085.287 1.158-.238.029-.227.047-.492-.316-.531.069.008.702-.249.807-.364.148-.169.486-.447.731-.447.286 0 .225-.417.356-.622.133.053-.071.38.088.512-.01-.104.45.057.494.033.105-.056.691-.023.601-.299-.101-.28.052-.197.183-.255-.02.008.248-.458.363-.456-.104-.089-.398.112-.516.103-.308-.024-.177-.525-.061-.672.09-.116-.246-.258-.25-.036-.006.332-.314.633-.243 1.075.109.666-.743-.161-.816-.115-.283.172-.515-.216-.368-.449.149-.238.51-.226.659-.48.104-.179.227-.389.388-.524.541-.454.689-.091 1.229-.042.526.048.178.125.105.327-.07.192.289.261.413.1.071-.092.232-.326.301-.499.07-.175.578-.2.527-.365a10.049 10.049 0 0 1 5.694 6.318zM10.454 5.319l.068-.087.073-.019c.042-.034.086-.118.151-.104.043.009.146.095.111.148-.037.054-.066-.049-.081.101-.018.169-.188.167-.313.222-.087.037-.175-.018-.09-.104l.088-.108-.007-.049zm.442.245c.046-.045.138-.008.151-.094.014-.084.078-.178-.008-.335-.022-.042.116-.082.051-.137l-.109.032s.155-.668.364-.366l-.089.103c.135.134.172.47.215.687.127.066.324.078.098.192.117-.02-.618.314-.715.178-.072-.083.317-.139.307-.173-.004-.011-.317-.02-.265-.087zm1.43-3.547l-.356.326c-.36.298-1.28.883-1.793.705-.524-.18-1.647.667-1.826.673-.067.003.002-.641.36-.689-.141.021.993-.575 1.185-.805A9.98 9.98 0 0 1 12 2l.326.017zM7.24 3.207c.07.082.278.092-.026.288-.183.11-.377.809-.548.809-.51.223-.542-.439-1.109.413-.078.115-.395.158-.644.236A10.085 10.085 0 0 1 7.24 3.207zM2 12c0-.541.055-1.068.139-1.586l.292.185c.113.135.113.719.169.911.139.482.484.751.748 1.19.155.261.414.923.332 1.197.109-.179 1.081.824 1.259 1.033.418.492.74 1.088.061 1.574-.219.158.334 1.14.049 1.382l-.365.094c-.225.138-.235.397-.166.631A9.944 9.944 0 0 1 2 12zm14.347-5.823c.083-.01-.107.167-.107.167.033.256.222.396.581.527.437.157.038.455-.213.385-.139-.039-.854-.255-.879.025 0 .167-.679.001-.573-.175.073-.119.05-.387.186-.562.193-.255.38-.116.386.032-.001.394.398-.373.619-.399z"></path>
  </symbol>
  <symbol xmlns="http://www.w3.org/2000/svg" viewBox="0 0 24 24" id="google-icon">
    <path d="M12.545 10.239v3.821h5.445c-.712 2.315-2.647 3.972-5.445 3.972a6.033 6.033 0 1 1 0-12.064c1.498 0 2.866.549 3.921 1.453l2.814-2.814A9.969 9.969 0 0 0 12.545 2C7.021 2 2.543 6.477 2.543 12s4.478 10 10.002 10c8.396 0 10.249-7.85 9.426-11.748l-9.426-.013z"></path>
  </symbol>
  <symbol xmlns="http://www.w3.org/2000/svg" viewBox="0 0 216.975 216.975" id="google-maps">
    <path d="M182.442 0H34.53C15.49 0 0 15.491 0 34.531v147.913c0 19.04 15.49 34.53 34.53 34.53h147.912c19.041 0 34.532-15.49 34.532-34.53V34.531C216.975 15.491 201.483 0 182.442 0zm-46.711 48.122C135.731 29.858 150.59 15 168.852 15c18.264 0 33.122 14.858 33.122 33.122 0 12.021-18.405 41.336-33.122 61.603-14.715-20.267-33.121-49.582-33.121-61.603zM15 34.531C15 23.762 23.761 15 34.53 15h99.463c-8.208 8.635-13.262 20.296-13.262 33.122 0 7.455 3.886 17.633 9.306 28.209l-26.846 26.846-.008.007-.007.008-86.695 86.695A19.42 19.42 0 0 1 15 182.445V34.531zm19.53 167.444c-2.635 0-5.146-.531-7.442-1.481l81.399-81.398 81.398 81.398a19.42 19.42 0 0 1-7.443 1.481H34.53zm167.445-19.531c0 2.635-.531 5.146-1.481 7.442l-81.398-81.399 18.555-18.554c10.69 17.785 22.918 33.86 25.262 36.903a7.5 7.5 0 0 0 11.882 0c2.485-3.227 16.085-21.106 27.181-40.141v95.749z"></path>
    <path d="M63.964 98.25c20.009 0 36.287-16.278 36.287-36.287a7.5 7.5 0 0 0-7.5-7.5H63.964a7.5 7.5 0 0 0-7.5 7.5 7.5 7.5 0 0 0 7.5 7.5h19.923C80.848 77.511 73.063 83.25 63.964 83.25c-11.737 0-21.286-9.549-21.286-21.287 0-11.737 9.549-21.286 21.286-21.286 5.684 0 11.03 2.214 15.052 6.234a7.5 7.5 0 0 0 10.605-10.608c-6.854-6.852-15.967-10.625-25.657-10.625-20.008 0-36.286 16.278-36.286 36.286 0 20.008 16.278 36.286 36.286 36.286z"></path>
  </symbol>
  <symbol viewBox="-119 -21 682 682.667" xmlns="http://www.w3.org/2000/svg" id="gps">
    <path d="M216.21 0C93.548 0-6.25 99.797-6.25 222.46-6.25 376.638 216.43 640 216.43 640s222.242-270.945 222.242-417.54C438.672 99.798 338.879 0 216.21 0zm67.122 287.598c-18.508 18.504-42.812 27.757-67.121 27.757-24.305 0-48.617-9.253-67.117-27.757-37.012-37.008-37.012-97.227 0-134.239 17.922-17.93 41.761-27.804 67.117-27.804 25.355 0 49.191 9.879 67.121 27.804 37.012 37.012 37.012 97.23 0 134.239zm0 0"></path>
  </symbol>
  <symbol xmlns="http://www.w3.org/2000/svg" viewBox="0 0 24 24" id="id-card-icon">
    <path d="M3 22V2h18v11.543C21 17.65 15 16 15 16s1.518 6-2.638 6H3zm20-7.614V0H1v24h12.189C16.352 24 23 16.777 23 14.386zM11.963 8.861c-.241.705-.242.569 0 1.277l.037.223a.704.704 0 0 1-.308.578c-.628.435-.545.325-.781 1.033a.741.741 0 0 1-.708.495h-.001c-.774-.003-.64-.044-1.265.395a.758.758 0 0 1-.875 0c-.625-.439-.49-.397-1.265-.395h-.002a.739.739 0 0 1-.706-.495c-.236-.709-.156-.599-.781-1.033A.704.704 0 0 1 5 10.361l.037-.222c.242-.705.242-.569 0-1.277L5 8.639c0-.225.111-.441.309-.578.625-.435.544-.325.781-1.034a.738.738 0 0 1 .706-.495h.002c.772.003.636.047 1.264-.395a.764.764 0 0 1 .876 0c.625.439.49.397 1.265.395h.001a.74.74 0 0 1 .708.495c.236.708.153.598.781 1.033a.708.708 0 0 1 .307.579l-.037.222zM10.25 9.5a1.75 1.75 0 1 0-3.5 0 1.75 1.75 0 0 0 3.5 0zm-3.067 3.966a3.49 3.49 0 0 1-.937-.107c-.154 1.534-.68 2.685-1.746 3.796.428.053.975-.047 1.416-.28.159.318.326.715.384 1.125a7.907 7.907 0 0 0 1.867-4.035c-.472-.091-.617-.248-.984-.499zm2.634 0c-.368.253-.521.41-.983.499A7.913 7.913 0 0 0 10.7 18c.058-.41.225-.807.384-1.125.441.232.988.333 1.416.28-1.064-1.109-1.584-2.266-1.739-3.797a3.52 3.52 0 0 1-.944.108zM19 6h-5v1h5V6zm0 2h-5v1h5V8zm0 2h-5v1h5v-1zm-2 2h-3v1h3v-1z"></path>
  </symbol>
  <symbol xmlns="http://www.w3.org/2000/svg" viewBox="0 0 24 24" id="leg-cert">
    <path d="M14.969 7.547l.031.191a.606.606 0 0 1-.264.496c-.538.372-.467.278-.67.885a.634.634 0 0 1-.605.424h-.002c-.664-.002-.549-.038-1.083.338a.651.651 0 0 1-.752.001c-.534-.376-.419-.34-1.083-.338h-.002a.634.634 0 0 1-.605-.424c-.204-.607-.133-.514-.669-.886A.605.605 0 0 1 9 7.738l.031-.19c.207-.604.208-.488 0-1.094L9 6.263c0-.193.096-.379.265-.497.536-.372.465-.277.669-.885a.634.634 0 0 1 .605-.424h.002c.662.002.544.041 1.083-.338a.651.651 0 0 1 .752-.001c.534.376.419.34 1.083.338h.002c.275 0 .521.171.605.424.203.607.132.513.67.885a.61.61 0 0 1 .264.497l-.031.191c-.207.604-.208.488 0 1.094zM13.5 6.349l-.465-.464-1.41 1.446-.66-.627-.465.464 1.125 1.091 1.875-1.91zM16 11H8v1h8v-1zm-1 2H9v1h6v-1zm1 2H8v1h8v-1zm-7.771 4C7.459 22.458 5 22.5 5 20.375V5.042C5 3.709 4.938 2.656 4 2h13c1.354 0 2 .625 2 2v13h2V4c0-2.021-.844-4-4-4H5C1.506 0 0 2.906 0 5h3v16a3 3 0 0 0 3 3h14c2.688-.531 3.875-2.938 4-5H8.229z"></path>
  </symbol>
  <symbol viewBox="0 0 16 16" xmlns="http://www.w3.org/2000/svg" id="like-icon">
    <path d="M0 6v8a1 1 0 0 0 1 1h3V5H1a1 1 0 0 0-1 1zm14.153 0H11.2a.491.491 0 0 1-.43-.247.492.492 0 0 1-.007-.496l1.041-1.875c.229-.411.252-.894.065-1.325a1.488 1.488 0 0 0-1.013-.858l-.734-.184a.499.499 0 0 0-.493.15l-3.987 4.43A2.499 2.499 0 0 0 5 7.267V12.5C5 13.878 6.122 15 7.5 15h4.974a2.506 2.506 0 0 0 2.411-1.84l1.068-4.898A1.849 1.849 0 0 0 14.153 6z"></path>
  </symbol>
  <symbol xmlns="http://www.w3.org/2000/svg" viewBox="0 0 24 24" id="location-icon">
    <path d="M12 1C8.852 1 6 3.553 6 6.702 6 9.85 8.602 13.609 12 19c3.398-5.391 6-9.15 6-12.298C18 3.553 15.149 1 12 1zm0 8a2 2 0 1 1-.001-3.999A2 2 0 0 1 12 9zm8 6h-3.135a118.64 118.64 0 0 1-1.232 2h3.131l.5 1H15l-.344.544-.289.456h.558l.858 2H8.295l.858-2h.479l-.289-.456L9 18H6.958l-1.011-1h2.42c-.435-.691-.848-1.359-1.232-2H4l-4 8h24l-4-8zM7.206 21h-3.97L5 17.472 6.516 19h1.549l-.859 2zm8.808-2h3.75l1 2h-3.892l-.858-2z"></path>
  </symbol>
  <symbol xmlns="http://www.w3.org/2000/svg" viewBox="0 0 512 512" id="mail">
    <path d="M10.688 95.156C80.958 154.667 204.26 259.365 240.5 292.01c4.865 4.406 10.083 6.646 15.5 6.646 5.406 0 10.615-2.219 15.469-6.604 36.271-32.677 159.573-137.385 229.844-196.896 4.375-3.698 5.042-10.198 1.5-14.719C494.625 69.99 482.417 64 469.333 64H42.667c-13.083 0-25.292 5.99-33.479 16.438-3.542 4.52-2.875 11.02 1.5 14.718z"></path>
    <path d="M505.813 127.406a10.618 10.618 0 0 0-11.375 1.542C416.51 195.01 317.052 279.688 285.76 307.885c-17.563 15.854-41.938 15.854-59.542-.021-33.354-30.052-145.042-125-208.656-178.917a10.674 10.674 0 0 0-11.375-1.542A10.674 10.674 0 0 0 0 137.083v268.25C0 428.865 19.135 448 42.667 448h426.667C492.865 448 512 428.865 512 405.333v-268.25a10.66 10.66 0 0 0-6.187-9.677z"></path>
  </symbol>
  <symbol xmlns="http://www.w3.org/2000/svg" viewBox="0 0 350 350" id="man-user">
    <path d="M175 171.173c38.914 0 70.463-38.318 70.463-85.586C245.463 38.318 235.105 0 175 0s-70.465 38.318-70.465 85.587c0 47.268 31.549 85.586 70.465 85.586zM41.909 301.853c-.012-2.882-.024-.812 0 0zm266.176 2.251c.038-.789.013-5.474 0 0z"></path>
    <path d="M307.935 298.397c-1.305-82.342-12.059-105.805-94.352-120.657 0 0-11.584 14.761-38.584 14.761s-38.586-14.761-38.586-14.761C55.018 192.43 43.61 215.545 42.11 295.722c-.123 6.547-.18 6.891-.202 6.131.005 1.424.011 4.058.011 8.651 0 0 19.592 39.496 133.08 39.496 113.486 0 133.08-39.496 133.08-39.496 0-2.951.002-5.003.005-6.399-.022.47-.066-.441-.149-5.708z"></path>
  </symbol>
  <symbol xmlns="http://www.w3.org/2000/svg" viewBox="0 0 24 24" id="map-g-icon">
    <path d="M12 0C8.852 0 6 2.553 6 5.702c0 4.682 4.783 5.177 6 12.298 1.217-7.121 6-7.616 6-12.298C18 2.553 15.149 0 12 0zm0 8a2 2 0 1 1-.001-3.999A2 2 0 0 1 12 8zm12 16l-6.707-2.427L12 24l-5.581-2.427L0 24l4-9 3.96-1.584c.38.516.741 1.08 1.061 1.729l-3.523 1.41-1.725 3.88 2.672-1.01 1.506-2.687-.635 3.044 4.189 1.789L12 19.55l.465 2.024 4.15-1.89-.618-3.033 1.572 2.896 2.732.989-1.739-3.978-3.581-1.415c.319-.65.681-1.215 1.062-1.731L20.064 15 24 24z"></path>
  </symbol>
  <symbol xmlns="http://www.w3.org/2000/svg" viewBox="0 0 50 50" id="medal-icon">
    <path d="M12 0c-.55 0-1 .45-1 1v3.781c0 1.356.988 3.086 2.281 4.032.028.019.035.046.063.062l5.75 3.344A2.976 2.976 0 0 1 21.5 11h7c.988 0 1.86.48 2.406 1.219l5.75-3.344c.028-.016.035-.043.063-.063C38.012 7.867 39 6.138 39 4.782V1a1 1 0 0 0-1-1zm9.5 13c-.55 0-1 .45-1 1v1c0 1.652 1.234 3 2.75 3h3.5c1.516 0 2.75-1.348 2.75-3v-1a1 1 0 0 0-1-1zm1.656 7l-3.906 7.75-10.063 1.438c-.515.074-.964.421-1.124.906a1.37 1.37 0 0 0 .343 1.406l7.313 6.969L14 48.344c-.09.508.11 1.043.531 1.343.426.305.973.333 1.438.094L25 45.125l9.031 4.656a1.396 1.396 0 0 0 1.438-.093c.422-.301.617-.84.531-1.344l-1.719-9.875 7.313-6.969c.375-.355.504-.914.343-1.406-.16-.489-.609-.832-1.124-.907L30.75 27.75 26.844 20z"></path>
  </symbol>
  <symbol xmlns="http://www.w3.org/2000/svg" fill-rule="evenodd" clip-rule="evenodd" id="nostific-icon">
    <path d="M24 21h-3l1-3h1l1 3zm-12.976-4.543L20 11.882V18c-1.007 2.041-5.607 3-8.5 3-3.175 0-7.389-.994-8.5-3v-6.614l8.024 5.071zM23 17h-1V9.74l-10.923 5.568L0 8.308 12 3l11 6.231V17z"></path>
  </symbol>
  <symbol xmlns="http://www.w3.org/2000/svg" viewBox="0 0 24 24" id="note-icon">
    <path d="M7 22V6h14v7.543C21 17.65 15 16 15 16s1.518 6-2.638 6H7zm16-7.614V4H5v20h8.189C16.352 24 23 16.777 23 14.386zM13 16H9v-1h4v1zm6-4H9v1h10v-1zm0-3H9v1h10V9zm1-7H3v19H1V0h19v2z"></path>
  </symbol>
  <symbol xmlns="http://www.w3.org/2000/svg" viewBox="0 0 512 512" id="phone">
    <path d="M503.28 129.021C437.251 59.583 349.428 21.333 256 21.333S74.749 59.583 8.72 129.021c-11.626 12.229-11.626 32.115 0 44.344l49.194 51.729c11.585 12.146 32.046 12.146 43.63 0 16.481-17.323 35.171-31.583 55.507-42.333 10.189-5.26 16.773-16.313 16.69-26.75l7.418-56.062c54.423-17.396 95.824-17.385 149.706-.01l7.334 54.667c0 11.823 6.272 22.615 16.523 28.25 20.419 10.802 39.13 25.063 55.611 42.375 5.772 6.094 13.523 9.438 21.815 9.438 8.293 0 16.044-3.344 21.815-9.427l49.319-51.875c11.625-12.232 11.625-32.117-.002-44.346z"></path>
    <path d="M394.792 220.229A53.252 53.252 0 0 0 347.729 192H164.271a53.252 53.252 0 0 0-47.063 28.229L48.938 348.24a53.585 53.585 0 0 0-6.271 25.094V448c0 23.531 19.146 42.667 42.667 42.667h341.333c23.521 0 42.667-19.135 42.667-42.667v-74.667a53.66 53.66 0 0 0-6.271-25.104l-68.271-128zM191.979 426.667c-11.771 0-21.333-9.573-21.333-21.333 0-11.76 9.563-21.333 21.333-21.333 11.771 0 21.333 9.573 21.333 21.333.001 11.76-9.562 21.333-21.333 21.333zm0-64c-11.771 0-21.333-9.573-21.333-21.333 0-11.76 9.563-21.333 21.333-21.333 11.771 0 21.333 9.573 21.333 21.333.001 11.76-9.562 21.333-21.333 21.333zm0-64c-11.771 0-21.333-9.573-21.333-21.333 0-11.76 9.563-21.333 21.333-21.333 11.771 0 21.333 9.573 21.333 21.333.001 11.76-9.562 21.333-21.333 21.333zm64.021 128c-11.771 0-21.333-9.573-21.333-21.333 0-11.76 9.563-21.333 21.333-21.333s21.333 9.573 21.333 21.333c0 11.76-9.562 21.333-21.333 21.333zm0-64c-11.771 0-21.333-9.573-21.333-21.333 0-11.76 9.563-21.333 21.333-21.333s21.333 9.573 21.333 21.333c0 11.76-9.562 21.333-21.333 21.333zm0-64c-11.771 0-21.333-9.573-21.333-21.333 0-11.76 9.563-21.333 21.333-21.333s21.333 9.573 21.333 21.333c0 11.76-9.562 21.333-21.333 21.333zm63.979 128c-11.771 0-21.333-9.573-21.333-21.333 0-11.76 9.563-21.333 21.333-21.333 11.771 0 21.333 9.573 21.333 21.333.001 11.76-9.562 21.333-21.333 21.333zm0-64c-11.771 0-21.333-9.573-21.333-21.333 0-11.76 9.563-21.333 21.333-21.333 11.771 0 21.333 9.573 21.333 21.333.001 11.76-9.562 21.333-21.333 21.333zm0-64c-11.771 0-21.333-9.573-21.333-21.333 0-11.76 9.563-21.333 21.333-21.333 11.771 0 21.333 9.573 21.333 21.333.001 11.76-9.562 21.333-21.333 21.333z"></path>
  </symbol>
  <symbol xmlns="http://www.w3.org/2000/svg" viewBox="0 0 384 384" id="phone-call">
    <path d="M353.188 252.052c-23.51 0-46.594-3.677-68.469-10.906-10.719-3.656-23.896-.302-30.438 6.417l-43.177 32.594c-50.073-26.729-80.917-57.563-107.281-107.26l31.635-42.052c8.219-8.208 11.167-20.198 7.635-31.448-7.26-21.99-10.948-45.063-10.948-68.583C132.146 13.823 118.323 0 101.333 0h-70.52C13.823 0 0 13.823 0 30.813 0 225.563 158.438 384 353.188 384c16.99 0 30.813-13.823 30.813-30.813v-70.323c-.001-16.989-13.824-30.812-30.813-30.812z"></path>
  </symbol>
  <symbol viewBox="0 0 494.942 494.942" xmlns="http://www.w3.org/2000/svg" id="play-button-icon">
    <path d="M35.353 0l424.236 247.471L35.353 494.942z"></path>
  </symbol>
  <symbol xmlns="http://www.w3.org/2000/svg" viewBox="0 0 24 24" id="portfolio-icon">
    <path d="M10 1v6h4V1h-4zm2 4a1 1 0 1 1 0-2 1 1 0 0 1 0 2zm4 0v3H8V5H0v18h24V5h-8zm-3 15H3v-.417c-.004-1.112.044-1.747 1.324-2.043 1.403-.324 2.787-.613 2.122-1.841C4.473 12.062 5.883 10 8 10c2.077 0 3.521 1.985 1.556 5.699-.647 1.22.688 1.51 2.121 1.841 1.284.297 1.328.936 1.323 2.057V20zm8 0h-6v-2h6v2zm0-4h-6v-2h6v2zm0-4h-6v-2h6v2z"></path>
  </symbol>
  <symbol xmlns="http://www.w3.org/2000/svg" viewBox="0 0 256 256" id="right-arrow">
    <path d="M79.093 0L48.907 30.187 146.72 128l-97.813 97.813L79.093 256l128-128z"></path>
  </symbol>
</svg>